%TF.GenerationSoftware,KiCad,Pcbnew,(5.1.7)-1*%
%TF.CreationDate,2020-11-07T14:05:26+07:00*%
%TF.ProjectId,pix,7069782e-6b69-4636-9164-5f7063625858,rev?*%
%TF.SameCoordinates,Original*%
%TF.FileFunction,Copper,L1,Top*%
%TF.FilePolarity,Positive*%
%FSLAX46Y46*%
G04 Gerber Fmt 4.6, Leading zero omitted, Abs format (unit mm)*
G04 Created by KiCad (PCBNEW (5.1.7)-1) date 2020-11-07 14:05:26*
%MOMM*%
%LPD*%
G01*
G04 APERTURE LIST*
%TA.AperFunction,ComponentPad*%
%ADD10C,1.752600*%
%TD*%
%TA.AperFunction,ComponentPad*%
%ADD11R,1.752600X1.752600*%
%TD*%
%TA.AperFunction,ComponentPad*%
%ADD12C,1.397000*%
%TD*%
%TA.AperFunction,ComponentPad*%
%ADD13R,2.000000X2.000000*%
%TD*%
%TA.AperFunction,ComponentPad*%
%ADD14C,2.000000*%
%TD*%
%TA.AperFunction,WasherPad*%
%ADD15R,3.200000X2.000000*%
%TD*%
%TA.AperFunction,ComponentPad*%
%ADD16C,2.100000*%
%TD*%
%TA.AperFunction,ComponentPad*%
%ADD17C,1.750000*%
%TD*%
%TA.AperFunction,ComponentPad*%
%ADD18C,2.200000*%
%TD*%
%TA.AperFunction,Conductor*%
%ADD19C,0.250000*%
%TD*%
%TA.AperFunction,Conductor*%
%ADD20C,0.254000*%
%TD*%
%TA.AperFunction,Conductor*%
%ADD21C,0.100000*%
%TD*%
G04 APERTURE END LIST*
D10*
%TO.P,U1,24*%
%TO.N,Net-(U1-Pad24)*%
X65998750Y-39630000D03*
%TO.P,U1,12*%
%TO.N,Net-(U1-Pad12)*%
X93938750Y-54870000D03*
%TO.P,U1,23*%
%TO.N,GND*%
X68538750Y-39630000D03*
%TO.P,U1,22*%
%TO.N,RESET*%
X71078750Y-39630000D03*
%TO.P,U1,21*%
%TO.N,VCC*%
X73618750Y-39630000D03*
%TO.P,U1,20*%
%TO.N,Net-(U1-Pad20)*%
X76158750Y-39630000D03*
%TO.P,U1,19*%
%TO.N,Net-(U1-Pad19)*%
X78698750Y-39630000D03*
%TO.P,U1,18*%
%TO.N,SWITCH_5*%
X81238750Y-39630000D03*
%TO.P,U1,17*%
%TO.N,Net-(U1-Pad17)*%
X83778750Y-39630000D03*
%TO.P,U1,16*%
%TO.N,ENCODER_A*%
X86318750Y-39630000D03*
%TO.P,U1,15*%
%TO.N,ENCODER_B*%
X88858750Y-39630000D03*
%TO.P,U1,14*%
%TO.N,Net-(U1-Pad14)*%
X91398750Y-39630000D03*
%TO.P,U1,13*%
%TO.N,Net-(U1-Pad13)*%
X93938750Y-39630000D03*
%TO.P,U1,11*%
%TO.N,SWITCH_4*%
X91398750Y-54870000D03*
%TO.P,U1,10*%
%TO.N,SWITCH_3*%
X88858750Y-54870000D03*
%TO.P,U1,9*%
%TO.N,SWITCH_2*%
X86318750Y-54870000D03*
%TO.P,U1,8*%
%TO.N,SWITCH_1*%
X83778750Y-54870000D03*
%TO.P,U1,7*%
%TO.N,Net-(U1-Pad7)*%
X81238750Y-54870000D03*
%TO.P,U1,6*%
%TO.N,SCL*%
X78698750Y-54870000D03*
%TO.P,U1,5*%
%TO.N,SDA*%
X76158750Y-54870000D03*
%TO.P,U1,4*%
%TO.N,GND*%
X73618750Y-54870000D03*
%TO.P,U1,3*%
X71078750Y-54870000D03*
%TO.P,U1,2*%
%TO.N,Net-(U1-Pad2)*%
X68538750Y-54870000D03*
D11*
%TO.P,U1,1*%
%TO.N,Net-(U1-Pad1)*%
X65998750Y-54870000D03*
%TD*%
%TO.P,OL1,4*%
%TO.N,GND*%
%TA.AperFunction,ComponentPad*%
G36*
G01*
X67474250Y-44232250D02*
X66775750Y-44232250D01*
G75*
G02*
X66426500Y-43883000I0J349250D01*
G01*
X66426500Y-43184500D01*
G75*
G02*
X66775750Y-42835250I349250J0D01*
G01*
X67474250Y-42835250D01*
G75*
G02*
X67823500Y-43184500I0J-349250D01*
G01*
X67823500Y-43883000D01*
G75*
G02*
X67474250Y-44232250I-349250J0D01*
G01*
G37*
%TD.AperFunction*%
D12*
%TO.P,OL1,3*%
%TO.N,VCC*%
X67125000Y-46073750D03*
%TO.P,OL1,2*%
%TO.N,SCL*%
X67125000Y-48613750D03*
%TO.P,OL1,1*%
%TO.N,SDA*%
X67125000Y-51153750D03*
%TD*%
D13*
%TO.P,SW2,A*%
%TO.N,ENCODER_A*%
X164593750Y-49411250D03*
D14*
%TO.P,SW2,C*%
%TO.N,GND*%
X164593750Y-46911250D03*
%TO.P,SW2,B*%
%TO.N,ENCODER_B*%
X164593750Y-44411250D03*
D15*
%TO.P,SW2,*%
%TO.N,*%
X157093750Y-52511250D03*
X157093750Y-41311250D03*
D14*
%TO.P,SW2,S2*%
%TO.N,SWITCH_5*%
X150093750Y-49411250D03*
%TO.P,SW2,S1*%
%TO.N,GND*%
X150093750Y-44411250D03*
%TD*%
D16*
%TO.P,SW1,*%
%TO.N,*%
X167666250Y-43437500D03*
D17*
%TO.P,SW1,1*%
%TO.N,GND*%
X170156250Y-44437500D03*
%TO.P,SW1,2*%
%TO.N,RESET*%
X170156250Y-49437500D03*
D16*
%TO.P,SW1,*%
%TO.N,*%
X167666250Y-50447500D03*
%TD*%
D18*
%TO.P,MX4,2*%
%TO.N,SWITCH_4*%
X131693750Y-44688750D03*
%TO.P,MX4,1*%
%TO.N,GND*%
X138043750Y-42148750D03*
%TD*%
%TO.P,MX3,2*%
%TO.N,SWITCH_3*%
X112643750Y-44688750D03*
%TO.P,MX3,1*%
%TO.N,GND*%
X118993750Y-42148750D03*
%TD*%
%TO.P,MX2,2*%
%TO.N,SWITCH_2*%
X93593750Y-44688750D03*
%TO.P,MX2,1*%
%TO.N,GND*%
X99943750Y-42148750D03*
%TD*%
%TO.P,MX1,2*%
%TO.N,SWITCH_1*%
X74543750Y-44688750D03*
%TO.P,MX1,1*%
%TO.N,GND*%
X80893750Y-42148750D03*
%TD*%
D19*
%TO.N,SWITCH_1*%
X74543750Y-46859752D02*
X80652748Y-52968750D01*
X74543750Y-44688750D02*
X74543750Y-46859752D01*
X81877500Y-52968750D02*
X83778750Y-54870000D01*
X80652748Y-52968750D02*
X81877500Y-52968750D01*
%TO.N,SWITCH_2*%
X86318750Y-50408116D02*
X86318750Y-54870000D01*
X92038116Y-44688750D02*
X86318750Y-50408116D01*
X93593750Y-44688750D02*
X92038116Y-44688750D01*
%TO.N,SWITCH_3*%
X90877999Y-52850751D02*
X88858750Y-54870000D01*
X98600751Y-52850751D02*
X90877999Y-52850751D01*
X106762752Y-44688750D02*
X98600751Y-52850751D01*
X112643750Y-44688750D02*
X106762752Y-44688750D01*
%TO.N,SWITCH_4*%
X93590725Y-53440099D02*
X92160824Y-54870000D01*
X98908849Y-53440099D02*
X93590725Y-53440099D01*
X98931209Y-53462459D02*
X98908849Y-53440099D01*
X92160824Y-54870000D02*
X91398750Y-54870000D01*
X106879043Y-53462459D02*
X98931209Y-53462459D01*
X115652752Y-44688750D02*
X106879043Y-53462459D01*
X131693750Y-44688750D02*
X115652752Y-44688750D01*
%TO.N,VCC*%
X72417449Y-38428699D02*
X73618750Y-39630000D01*
X70502125Y-38428699D02*
X72417449Y-38428699D01*
X69877449Y-39053375D02*
X70502125Y-38428699D01*
X69877449Y-43321301D02*
X69877449Y-39053375D01*
X67125000Y-46073750D02*
X69877449Y-43321301D01*
%TO.N,SCL*%
X72442500Y-48613750D02*
X67125000Y-48613750D01*
X78698750Y-54870000D02*
X72442500Y-48613750D01*
%TO.N,SDA*%
X72442500Y-51153750D02*
X67125000Y-51153750D01*
X76158750Y-54870000D02*
X72442500Y-51153750D01*
%TO.N,RESET*%
X75331301Y-40831301D02*
X72280051Y-40831301D01*
X84980051Y-50480051D02*
X75331301Y-40831301D01*
X85833327Y-56299901D02*
X84980051Y-55446625D01*
X108301451Y-56299901D02*
X85833327Y-56299901D01*
X84980051Y-55446625D02*
X84980051Y-50480051D01*
X108597551Y-56003801D02*
X108301451Y-56299901D01*
X164827385Y-56003801D02*
X108597551Y-56003801D01*
X170156250Y-50674936D02*
X164827385Y-56003801D01*
X72280051Y-40831301D02*
X71078750Y-39630000D01*
X170156250Y-49437500D02*
X170156250Y-50674936D01*
%TO.N,ENCODER_A*%
X87748651Y-41059901D02*
X86318750Y-39630000D01*
X100437766Y-38606260D02*
X97984125Y-41059901D01*
X161251100Y-38606260D02*
X100437766Y-38606260D01*
X162468750Y-39823910D02*
X161251100Y-38606260D01*
X97984125Y-41059901D02*
X87748651Y-41059901D01*
X162468750Y-47286250D02*
X162468750Y-39823910D01*
X164593750Y-49411250D02*
X162468750Y-47286250D01*
%TO.N,ENCODER_B*%
X90332500Y-38156250D02*
X88858750Y-39630000D01*
X161437500Y-38156250D02*
X90332500Y-38156250D01*
X164593750Y-41312500D02*
X161437500Y-38156250D01*
X164593750Y-44411250D02*
X164593750Y-41312500D01*
%TO.N,SWITCH_5*%
X83118661Y-41509911D02*
X81238750Y-39630000D01*
X100624166Y-39056270D02*
X98170525Y-41509911D01*
X139738770Y-39056270D02*
X100624166Y-39056270D01*
X98170525Y-41509911D02*
X83118661Y-41509911D01*
X150093750Y-49411250D02*
X139738770Y-39056270D01*
%TD*%
D20*
%TO.N,GND*%
X171512277Y-38217673D02*
X171554146Y-38230313D01*
X171592763Y-38250846D01*
X171626655Y-38278488D01*
X171654533Y-38312187D01*
X171675334Y-38350658D01*
X171688268Y-38392439D01*
X171696250Y-38468385D01*
X171696250Y-45743946D01*
X171487887Y-45702500D01*
X171244613Y-45702500D01*
X171006014Y-45749960D01*
X170781258Y-45843057D01*
X170578983Y-45978213D01*
X170406963Y-46150233D01*
X170271807Y-46352508D01*
X170178710Y-46577264D01*
X170131250Y-46815863D01*
X170131250Y-47059137D01*
X170178710Y-47297736D01*
X170271807Y-47522492D01*
X170406963Y-47724767D01*
X170578983Y-47896787D01*
X170781258Y-48031943D01*
X171006014Y-48125040D01*
X171244613Y-48172500D01*
X171487887Y-48172500D01*
X171696251Y-48131054D01*
X171696251Y-55934018D01*
X171688577Y-56012277D01*
X171675937Y-56054145D01*
X171655403Y-56092763D01*
X171627762Y-56126655D01*
X171594062Y-56154534D01*
X171555591Y-56175335D01*
X171513812Y-56188268D01*
X171437864Y-56196250D01*
X165709737Y-56196250D01*
X170667253Y-51238735D01*
X170696251Y-51214937D01*
X170778247Y-51115025D01*
X170791224Y-51099213D01*
X170861796Y-50967183D01*
X170905253Y-50823922D01*
X170912721Y-50748103D01*
X171118819Y-50610393D01*
X171329143Y-50400069D01*
X171494394Y-50152753D01*
X171608221Y-49877951D01*
X171666250Y-49586222D01*
X171666250Y-49288778D01*
X171608221Y-48997049D01*
X171494394Y-48722247D01*
X171329143Y-48474931D01*
X171118819Y-48264607D01*
X170871503Y-48099356D01*
X170596701Y-47985529D01*
X170304972Y-47927500D01*
X170007528Y-47927500D01*
X169715799Y-47985529D01*
X169440997Y-48099356D01*
X169193681Y-48264607D01*
X168983357Y-48474931D01*
X168818106Y-48722247D01*
X168704279Y-48997049D01*
X168683647Y-49100771D01*
X168464397Y-48954272D01*
X168157746Y-48827254D01*
X167832208Y-48762500D01*
X167500292Y-48762500D01*
X167174754Y-48827254D01*
X166868103Y-48954272D01*
X166592125Y-49138675D01*
X166357425Y-49373375D01*
X166231822Y-49561353D01*
X166231822Y-48411250D01*
X166219562Y-48286768D01*
X166183252Y-48167070D01*
X166124287Y-48056756D01*
X166044935Y-47960065D01*
X165948244Y-47880713D01*
X165844527Y-47825274D01*
X165993564Y-47771294D01*
X166134454Y-47481679D01*
X166216134Y-47170142D01*
X166235468Y-46848655D01*
X166191711Y-46529575D01*
X166086545Y-46225162D01*
X165993564Y-46051206D01*
X165729163Y-45955442D01*
X164773355Y-46911250D01*
X164787498Y-46925393D01*
X164607893Y-47104998D01*
X164593750Y-47090855D01*
X164579608Y-47104998D01*
X164400003Y-46925393D01*
X164414145Y-46911250D01*
X163458337Y-45955442D01*
X163228750Y-46038597D01*
X163228750Y-45311305D01*
X163323763Y-45453502D01*
X163551498Y-45681237D01*
X163648685Y-45746175D01*
X163637942Y-45775837D01*
X164593750Y-46731645D01*
X165549558Y-45775837D01*
X165538815Y-45746175D01*
X165636002Y-45681237D01*
X165833499Y-45483740D01*
X169289615Y-45483740D01*
X169370275Y-45735368D01*
X169638579Y-45863767D01*
X169926776Y-45937355D01*
X170223793Y-45953304D01*
X170518213Y-45911001D01*
X170798724Y-45812072D01*
X170942225Y-45735368D01*
X171022885Y-45483740D01*
X170156250Y-44617105D01*
X169289615Y-45483740D01*
X165833499Y-45483740D01*
X165863737Y-45453502D01*
X166042668Y-45185713D01*
X166165918Y-44888162D01*
X166228750Y-44572283D01*
X166228750Y-44319050D01*
X166357425Y-44511625D01*
X166592125Y-44746325D01*
X166868103Y-44930728D01*
X167174754Y-45057746D01*
X167500292Y-45122500D01*
X167832208Y-45122500D01*
X168157746Y-45057746D01*
X168464397Y-44930728D01*
X168680831Y-44786111D01*
X168682749Y-44799463D01*
X168781678Y-45079974D01*
X168858382Y-45223475D01*
X169110010Y-45304135D01*
X169976645Y-44437500D01*
X170335855Y-44437500D01*
X171202490Y-45304135D01*
X171454118Y-45223475D01*
X171582517Y-44955171D01*
X171656105Y-44666974D01*
X171672054Y-44369957D01*
X171629751Y-44075537D01*
X171530822Y-43795026D01*
X171454118Y-43651525D01*
X171202490Y-43570865D01*
X170335855Y-44437500D01*
X169976645Y-44437500D01*
X169962503Y-44423358D01*
X170142108Y-44243753D01*
X170156250Y-44257895D01*
X171022885Y-43391260D01*
X170942225Y-43139632D01*
X170673921Y-43011233D01*
X170385724Y-42937645D01*
X170088707Y-42921696D01*
X169794287Y-42963999D01*
X169513776Y-43062928D01*
X169370275Y-43139632D01*
X169342344Y-43226767D01*
X169286496Y-42946004D01*
X169159478Y-42639353D01*
X168975075Y-42363375D01*
X168740375Y-42128675D01*
X168464397Y-41944272D01*
X168157746Y-41817254D01*
X167832208Y-41752500D01*
X167500292Y-41752500D01*
X167174754Y-41817254D01*
X166868103Y-41944272D01*
X166592125Y-42128675D01*
X166357425Y-42363375D01*
X166173022Y-42639353D01*
X166046004Y-42946004D01*
X165981250Y-43271542D01*
X165981250Y-43544869D01*
X165863737Y-43368998D01*
X165636002Y-43141263D01*
X165368213Y-42962332D01*
X165353750Y-42956341D01*
X165353750Y-41349833D01*
X165357427Y-41312500D01*
X165342753Y-41163514D01*
X165299296Y-41020253D01*
X165228724Y-40888224D01*
X165157549Y-40801497D01*
X165133751Y-40772499D01*
X165104753Y-40748701D01*
X162566051Y-38210000D01*
X171434027Y-38210000D01*
X171512277Y-38217673D01*
%TA.AperFunction,Conductor*%
D21*
G36*
X171512277Y-38217673D02*
G01*
X171554146Y-38230313D01*
X171592763Y-38250846D01*
X171626655Y-38278488D01*
X171654533Y-38312187D01*
X171675334Y-38350658D01*
X171688268Y-38392439D01*
X171696250Y-38468385D01*
X171696250Y-45743946D01*
X171487887Y-45702500D01*
X171244613Y-45702500D01*
X171006014Y-45749960D01*
X170781258Y-45843057D01*
X170578983Y-45978213D01*
X170406963Y-46150233D01*
X170271807Y-46352508D01*
X170178710Y-46577264D01*
X170131250Y-46815863D01*
X170131250Y-47059137D01*
X170178710Y-47297736D01*
X170271807Y-47522492D01*
X170406963Y-47724767D01*
X170578983Y-47896787D01*
X170781258Y-48031943D01*
X171006014Y-48125040D01*
X171244613Y-48172500D01*
X171487887Y-48172500D01*
X171696251Y-48131054D01*
X171696251Y-55934018D01*
X171688577Y-56012277D01*
X171675937Y-56054145D01*
X171655403Y-56092763D01*
X171627762Y-56126655D01*
X171594062Y-56154534D01*
X171555591Y-56175335D01*
X171513812Y-56188268D01*
X171437864Y-56196250D01*
X165709737Y-56196250D01*
X170667253Y-51238735D01*
X170696251Y-51214937D01*
X170778247Y-51115025D01*
X170791224Y-51099213D01*
X170861796Y-50967183D01*
X170905253Y-50823922D01*
X170912721Y-50748103D01*
X171118819Y-50610393D01*
X171329143Y-50400069D01*
X171494394Y-50152753D01*
X171608221Y-49877951D01*
X171666250Y-49586222D01*
X171666250Y-49288778D01*
X171608221Y-48997049D01*
X171494394Y-48722247D01*
X171329143Y-48474931D01*
X171118819Y-48264607D01*
X170871503Y-48099356D01*
X170596701Y-47985529D01*
X170304972Y-47927500D01*
X170007528Y-47927500D01*
X169715799Y-47985529D01*
X169440997Y-48099356D01*
X169193681Y-48264607D01*
X168983357Y-48474931D01*
X168818106Y-48722247D01*
X168704279Y-48997049D01*
X168683647Y-49100771D01*
X168464397Y-48954272D01*
X168157746Y-48827254D01*
X167832208Y-48762500D01*
X167500292Y-48762500D01*
X167174754Y-48827254D01*
X166868103Y-48954272D01*
X166592125Y-49138675D01*
X166357425Y-49373375D01*
X166231822Y-49561353D01*
X166231822Y-48411250D01*
X166219562Y-48286768D01*
X166183252Y-48167070D01*
X166124287Y-48056756D01*
X166044935Y-47960065D01*
X165948244Y-47880713D01*
X165844527Y-47825274D01*
X165993564Y-47771294D01*
X166134454Y-47481679D01*
X166216134Y-47170142D01*
X166235468Y-46848655D01*
X166191711Y-46529575D01*
X166086545Y-46225162D01*
X165993564Y-46051206D01*
X165729163Y-45955442D01*
X164773355Y-46911250D01*
X164787498Y-46925393D01*
X164607893Y-47104998D01*
X164593750Y-47090855D01*
X164579608Y-47104998D01*
X164400003Y-46925393D01*
X164414145Y-46911250D01*
X163458337Y-45955442D01*
X163228750Y-46038597D01*
X163228750Y-45311305D01*
X163323763Y-45453502D01*
X163551498Y-45681237D01*
X163648685Y-45746175D01*
X163637942Y-45775837D01*
X164593750Y-46731645D01*
X165549558Y-45775837D01*
X165538815Y-45746175D01*
X165636002Y-45681237D01*
X165833499Y-45483740D01*
X169289615Y-45483740D01*
X169370275Y-45735368D01*
X169638579Y-45863767D01*
X169926776Y-45937355D01*
X170223793Y-45953304D01*
X170518213Y-45911001D01*
X170798724Y-45812072D01*
X170942225Y-45735368D01*
X171022885Y-45483740D01*
X170156250Y-44617105D01*
X169289615Y-45483740D01*
X165833499Y-45483740D01*
X165863737Y-45453502D01*
X166042668Y-45185713D01*
X166165918Y-44888162D01*
X166228750Y-44572283D01*
X166228750Y-44319050D01*
X166357425Y-44511625D01*
X166592125Y-44746325D01*
X166868103Y-44930728D01*
X167174754Y-45057746D01*
X167500292Y-45122500D01*
X167832208Y-45122500D01*
X168157746Y-45057746D01*
X168464397Y-44930728D01*
X168680831Y-44786111D01*
X168682749Y-44799463D01*
X168781678Y-45079974D01*
X168858382Y-45223475D01*
X169110010Y-45304135D01*
X169976645Y-44437500D01*
X170335855Y-44437500D01*
X171202490Y-45304135D01*
X171454118Y-45223475D01*
X171582517Y-44955171D01*
X171656105Y-44666974D01*
X171672054Y-44369957D01*
X171629751Y-44075537D01*
X171530822Y-43795026D01*
X171454118Y-43651525D01*
X171202490Y-43570865D01*
X170335855Y-44437500D01*
X169976645Y-44437500D01*
X169962503Y-44423358D01*
X170142108Y-44243753D01*
X170156250Y-44257895D01*
X171022885Y-43391260D01*
X170942225Y-43139632D01*
X170673921Y-43011233D01*
X170385724Y-42937645D01*
X170088707Y-42921696D01*
X169794287Y-42963999D01*
X169513776Y-43062928D01*
X169370275Y-43139632D01*
X169342344Y-43226767D01*
X169286496Y-42946004D01*
X169159478Y-42639353D01*
X168975075Y-42363375D01*
X168740375Y-42128675D01*
X168464397Y-41944272D01*
X168157746Y-41817254D01*
X167832208Y-41752500D01*
X167500292Y-41752500D01*
X167174754Y-41817254D01*
X166868103Y-41944272D01*
X166592125Y-42128675D01*
X166357425Y-42363375D01*
X166173022Y-42639353D01*
X166046004Y-42946004D01*
X165981250Y-43271542D01*
X165981250Y-43544869D01*
X165863737Y-43368998D01*
X165636002Y-43141263D01*
X165368213Y-42962332D01*
X165353750Y-42956341D01*
X165353750Y-41349833D01*
X165357427Y-41312500D01*
X165342753Y-41163514D01*
X165299296Y-41020253D01*
X165228724Y-40888224D01*
X165157549Y-40801497D01*
X165133751Y-40772499D01*
X165104753Y-40748701D01*
X162566051Y-38210000D01*
X171434027Y-38210000D01*
X171512277Y-38217673D01*
G37*
%TD.AperFunction*%
D20*
X67895823Y-38254198D02*
X67752004Y-38331071D01*
X67671187Y-38582831D01*
X68538750Y-39450395D01*
X68552892Y-39436252D01*
X68732498Y-39615858D01*
X68718355Y-39630000D01*
X68732498Y-39644142D01*
X68552893Y-39823748D01*
X68538750Y-39809605D01*
X67671187Y-40677169D01*
X67752004Y-40928929D01*
X68020529Y-41057457D01*
X68308969Y-41131129D01*
X68606241Y-41147113D01*
X68900917Y-41104796D01*
X69117450Y-41028448D01*
X69117449Y-43006499D01*
X68381474Y-43742474D01*
X68299750Y-43660750D01*
X67252000Y-43660750D01*
X67252000Y-43680750D01*
X66998000Y-43680750D01*
X66998000Y-43660750D01*
X65950250Y-43660750D01*
X65791500Y-43819500D01*
X65788428Y-44232250D01*
X65800688Y-44356732D01*
X65836998Y-44476430D01*
X65895963Y-44586744D01*
X65975315Y-44683435D01*
X66072006Y-44762787D01*
X66182320Y-44821752D01*
X66302018Y-44858062D01*
X66426500Y-44870322D01*
X66547911Y-44869418D01*
X66493351Y-44892018D01*
X66274943Y-45037953D01*
X66089203Y-45223693D01*
X65943268Y-45442101D01*
X65842746Y-45684782D01*
X65791500Y-45942412D01*
X65791500Y-46205088D01*
X65842746Y-46462718D01*
X65943268Y-46705399D01*
X66089203Y-46923807D01*
X66274943Y-47109547D01*
X66493351Y-47255482D01*
X66706448Y-47343750D01*
X66493351Y-47432018D01*
X66274943Y-47577953D01*
X66089203Y-47763693D01*
X65943268Y-47982101D01*
X65842746Y-48224782D01*
X65791500Y-48482412D01*
X65791500Y-48745088D01*
X65842746Y-49002718D01*
X65943268Y-49245399D01*
X66089203Y-49463807D01*
X66274943Y-49649547D01*
X66493351Y-49795482D01*
X66706448Y-49883750D01*
X66493351Y-49972018D01*
X66274943Y-50117953D01*
X66089203Y-50303693D01*
X65943268Y-50522101D01*
X65842746Y-50764782D01*
X65791500Y-51022412D01*
X65791500Y-51285088D01*
X65842746Y-51542718D01*
X65943268Y-51785399D01*
X66089203Y-52003807D01*
X66274943Y-52189547D01*
X66493351Y-52335482D01*
X66736032Y-52436004D01*
X66993662Y-52487250D01*
X67256338Y-52487250D01*
X67513968Y-52436004D01*
X67756649Y-52335482D01*
X67975057Y-52189547D01*
X68160797Y-52003807D01*
X68220971Y-51913750D01*
X72127699Y-51913750D01*
X73567721Y-53353772D01*
X73551259Y-53352887D01*
X73256583Y-53395204D01*
X72975823Y-53494198D01*
X72832004Y-53571071D01*
X72751187Y-53822831D01*
X73618750Y-54690395D01*
X73632892Y-54676252D01*
X73812498Y-54855858D01*
X73798355Y-54870000D01*
X74665919Y-55737563D01*
X74875795Y-55670191D01*
X74984846Y-55833398D01*
X75195352Y-56043904D01*
X75423355Y-56196250D01*
X74354382Y-56196250D01*
X74405496Y-56168929D01*
X74486313Y-55917169D01*
X73618750Y-55049605D01*
X72751187Y-55917169D01*
X72832004Y-56168929D01*
X72889084Y-56196250D01*
X71814382Y-56196250D01*
X71865496Y-56168929D01*
X71946313Y-55917169D01*
X71078750Y-55049605D01*
X70211187Y-55917169D01*
X70292004Y-56168929D01*
X70349084Y-56196250D01*
X69274145Y-56196250D01*
X69502148Y-56043904D01*
X69712654Y-55833398D01*
X69821705Y-55670191D01*
X70031581Y-55737563D01*
X70899145Y-54870000D01*
X71258355Y-54870000D01*
X72125919Y-55737563D01*
X72348750Y-55666032D01*
X72571581Y-55737563D01*
X73439145Y-54870000D01*
X72571581Y-54002437D01*
X72348750Y-54073968D01*
X72125919Y-54002437D01*
X71258355Y-54870000D01*
X70899145Y-54870000D01*
X70031581Y-54002437D01*
X69821705Y-54069809D01*
X69712654Y-53906602D01*
X69628883Y-53822831D01*
X70211187Y-53822831D01*
X71078750Y-54690395D01*
X71946313Y-53822831D01*
X71865496Y-53571071D01*
X71596971Y-53442543D01*
X71308531Y-53368871D01*
X71011259Y-53352887D01*
X70716583Y-53395204D01*
X70435823Y-53494198D01*
X70292004Y-53571071D01*
X70211187Y-53822831D01*
X69628883Y-53822831D01*
X69502148Y-53696096D01*
X69254619Y-53530703D01*
X68979580Y-53416778D01*
X68687600Y-53358700D01*
X68389900Y-53358700D01*
X68097920Y-53416778D01*
X67822881Y-53530703D01*
X67575352Y-53696096D01*
X67477906Y-53793542D01*
X67464552Y-53749520D01*
X67405587Y-53639206D01*
X67326235Y-53542515D01*
X67229544Y-53463163D01*
X67119230Y-53404198D01*
X66999532Y-53367888D01*
X66875050Y-53355628D01*
X65122450Y-53355628D01*
X64997968Y-53367888D01*
X64878270Y-53404198D01*
X64767956Y-53463163D01*
X64741250Y-53485080D01*
X64741250Y-42835250D01*
X65788428Y-42835250D01*
X65791500Y-43248000D01*
X65950250Y-43406750D01*
X66998000Y-43406750D01*
X66998000Y-42359000D01*
X67252000Y-42359000D01*
X67252000Y-43406750D01*
X68299750Y-43406750D01*
X68458500Y-43248000D01*
X68461572Y-42835250D01*
X68449312Y-42710768D01*
X68413002Y-42591070D01*
X68354037Y-42480756D01*
X68274685Y-42384065D01*
X68177994Y-42304713D01*
X68067680Y-42245748D01*
X67947982Y-42209438D01*
X67823500Y-42197178D01*
X67410750Y-42200250D01*
X67252000Y-42359000D01*
X66998000Y-42359000D01*
X66839250Y-42200250D01*
X66426500Y-42197178D01*
X66302018Y-42209438D01*
X66182320Y-42245748D01*
X66072006Y-42304713D01*
X65975315Y-42384065D01*
X65895963Y-42480756D01*
X65836998Y-42591070D01*
X65800688Y-42710768D01*
X65788428Y-42835250D01*
X64741250Y-42835250D01*
X64741250Y-40468287D01*
X64824846Y-40593398D01*
X65035352Y-40803904D01*
X65282881Y-40969297D01*
X65557920Y-41083222D01*
X65849900Y-41141300D01*
X66147600Y-41141300D01*
X66439580Y-41083222D01*
X66714619Y-40969297D01*
X66962148Y-40803904D01*
X67172654Y-40593398D01*
X67281705Y-40430191D01*
X67491581Y-40497563D01*
X68359145Y-39630000D01*
X67491581Y-38762437D01*
X67281705Y-38829809D01*
X67172654Y-38666602D01*
X66962148Y-38456096D01*
X66714619Y-38290703D01*
X66519785Y-38210000D01*
X68021174Y-38210000D01*
X67895823Y-38254198D01*
%TA.AperFunction,Conductor*%
D21*
G36*
X67895823Y-38254198D02*
G01*
X67752004Y-38331071D01*
X67671187Y-38582831D01*
X68538750Y-39450395D01*
X68552892Y-39436252D01*
X68732498Y-39615858D01*
X68718355Y-39630000D01*
X68732498Y-39644142D01*
X68552893Y-39823748D01*
X68538750Y-39809605D01*
X67671187Y-40677169D01*
X67752004Y-40928929D01*
X68020529Y-41057457D01*
X68308969Y-41131129D01*
X68606241Y-41147113D01*
X68900917Y-41104796D01*
X69117450Y-41028448D01*
X69117449Y-43006499D01*
X68381474Y-43742474D01*
X68299750Y-43660750D01*
X67252000Y-43660750D01*
X67252000Y-43680750D01*
X66998000Y-43680750D01*
X66998000Y-43660750D01*
X65950250Y-43660750D01*
X65791500Y-43819500D01*
X65788428Y-44232250D01*
X65800688Y-44356732D01*
X65836998Y-44476430D01*
X65895963Y-44586744D01*
X65975315Y-44683435D01*
X66072006Y-44762787D01*
X66182320Y-44821752D01*
X66302018Y-44858062D01*
X66426500Y-44870322D01*
X66547911Y-44869418D01*
X66493351Y-44892018D01*
X66274943Y-45037953D01*
X66089203Y-45223693D01*
X65943268Y-45442101D01*
X65842746Y-45684782D01*
X65791500Y-45942412D01*
X65791500Y-46205088D01*
X65842746Y-46462718D01*
X65943268Y-46705399D01*
X66089203Y-46923807D01*
X66274943Y-47109547D01*
X66493351Y-47255482D01*
X66706448Y-47343750D01*
X66493351Y-47432018D01*
X66274943Y-47577953D01*
X66089203Y-47763693D01*
X65943268Y-47982101D01*
X65842746Y-48224782D01*
X65791500Y-48482412D01*
X65791500Y-48745088D01*
X65842746Y-49002718D01*
X65943268Y-49245399D01*
X66089203Y-49463807D01*
X66274943Y-49649547D01*
X66493351Y-49795482D01*
X66706448Y-49883750D01*
X66493351Y-49972018D01*
X66274943Y-50117953D01*
X66089203Y-50303693D01*
X65943268Y-50522101D01*
X65842746Y-50764782D01*
X65791500Y-51022412D01*
X65791500Y-51285088D01*
X65842746Y-51542718D01*
X65943268Y-51785399D01*
X66089203Y-52003807D01*
X66274943Y-52189547D01*
X66493351Y-52335482D01*
X66736032Y-52436004D01*
X66993662Y-52487250D01*
X67256338Y-52487250D01*
X67513968Y-52436004D01*
X67756649Y-52335482D01*
X67975057Y-52189547D01*
X68160797Y-52003807D01*
X68220971Y-51913750D01*
X72127699Y-51913750D01*
X73567721Y-53353772D01*
X73551259Y-53352887D01*
X73256583Y-53395204D01*
X72975823Y-53494198D01*
X72832004Y-53571071D01*
X72751187Y-53822831D01*
X73618750Y-54690395D01*
X73632892Y-54676252D01*
X73812498Y-54855858D01*
X73798355Y-54870000D01*
X74665919Y-55737563D01*
X74875795Y-55670191D01*
X74984846Y-55833398D01*
X75195352Y-56043904D01*
X75423355Y-56196250D01*
X74354382Y-56196250D01*
X74405496Y-56168929D01*
X74486313Y-55917169D01*
X73618750Y-55049605D01*
X72751187Y-55917169D01*
X72832004Y-56168929D01*
X72889084Y-56196250D01*
X71814382Y-56196250D01*
X71865496Y-56168929D01*
X71946313Y-55917169D01*
X71078750Y-55049605D01*
X70211187Y-55917169D01*
X70292004Y-56168929D01*
X70349084Y-56196250D01*
X69274145Y-56196250D01*
X69502148Y-56043904D01*
X69712654Y-55833398D01*
X69821705Y-55670191D01*
X70031581Y-55737563D01*
X70899145Y-54870000D01*
X71258355Y-54870000D01*
X72125919Y-55737563D01*
X72348750Y-55666032D01*
X72571581Y-55737563D01*
X73439145Y-54870000D01*
X72571581Y-54002437D01*
X72348750Y-54073968D01*
X72125919Y-54002437D01*
X71258355Y-54870000D01*
X70899145Y-54870000D01*
X70031581Y-54002437D01*
X69821705Y-54069809D01*
X69712654Y-53906602D01*
X69628883Y-53822831D01*
X70211187Y-53822831D01*
X71078750Y-54690395D01*
X71946313Y-53822831D01*
X71865496Y-53571071D01*
X71596971Y-53442543D01*
X71308531Y-53368871D01*
X71011259Y-53352887D01*
X70716583Y-53395204D01*
X70435823Y-53494198D01*
X70292004Y-53571071D01*
X70211187Y-53822831D01*
X69628883Y-53822831D01*
X69502148Y-53696096D01*
X69254619Y-53530703D01*
X68979580Y-53416778D01*
X68687600Y-53358700D01*
X68389900Y-53358700D01*
X68097920Y-53416778D01*
X67822881Y-53530703D01*
X67575352Y-53696096D01*
X67477906Y-53793542D01*
X67464552Y-53749520D01*
X67405587Y-53639206D01*
X67326235Y-53542515D01*
X67229544Y-53463163D01*
X67119230Y-53404198D01*
X66999532Y-53367888D01*
X66875050Y-53355628D01*
X65122450Y-53355628D01*
X64997968Y-53367888D01*
X64878270Y-53404198D01*
X64767956Y-53463163D01*
X64741250Y-53485080D01*
X64741250Y-42835250D01*
X65788428Y-42835250D01*
X65791500Y-43248000D01*
X65950250Y-43406750D01*
X66998000Y-43406750D01*
X66998000Y-42359000D01*
X67252000Y-42359000D01*
X67252000Y-43406750D01*
X68299750Y-43406750D01*
X68458500Y-43248000D01*
X68461572Y-42835250D01*
X68449312Y-42710768D01*
X68413002Y-42591070D01*
X68354037Y-42480756D01*
X68274685Y-42384065D01*
X68177994Y-42304713D01*
X68067680Y-42245748D01*
X67947982Y-42209438D01*
X67823500Y-42197178D01*
X67410750Y-42200250D01*
X67252000Y-42359000D01*
X66998000Y-42359000D01*
X66839250Y-42200250D01*
X66426500Y-42197178D01*
X66302018Y-42209438D01*
X66182320Y-42245748D01*
X66072006Y-42304713D01*
X65975315Y-42384065D01*
X65895963Y-42480756D01*
X65836998Y-42591070D01*
X65800688Y-42710768D01*
X65788428Y-42835250D01*
X64741250Y-42835250D01*
X64741250Y-40468287D01*
X64824846Y-40593398D01*
X65035352Y-40803904D01*
X65282881Y-40969297D01*
X65557920Y-41083222D01*
X65849900Y-41141300D01*
X66147600Y-41141300D01*
X66439580Y-41083222D01*
X66714619Y-40969297D01*
X66962148Y-40803904D01*
X67172654Y-40593398D01*
X67281705Y-40430191D01*
X67491581Y-40497563D01*
X68359145Y-39630000D01*
X67491581Y-38762437D01*
X67281705Y-38829809D01*
X67172654Y-38666602D01*
X66962148Y-38456096D01*
X66714619Y-38290703D01*
X66519785Y-38210000D01*
X68021174Y-38210000D01*
X67895823Y-38254198D01*
G37*
%TD.AperFunction*%
D20*
X161708751Y-40138713D02*
X161708750Y-47248928D01*
X161705074Y-47286250D01*
X161708750Y-47323572D01*
X161708750Y-47323582D01*
X161719747Y-47435235D01*
X161763039Y-47577953D01*
X161763204Y-47578496D01*
X161833776Y-47710526D01*
X161873621Y-47759076D01*
X161928749Y-47826251D01*
X161957753Y-47850054D01*
X162955678Y-48847979D01*
X162955678Y-50411250D01*
X162967938Y-50535732D01*
X163004248Y-50655430D01*
X163063213Y-50765744D01*
X163142565Y-50862435D01*
X163239256Y-50941787D01*
X163349570Y-51000752D01*
X163469268Y-51037062D01*
X163593750Y-51049322D01*
X165593750Y-51049322D01*
X165718232Y-51037062D01*
X165837930Y-51000752D01*
X165948244Y-50941787D01*
X166032762Y-50872425D01*
X166046004Y-50938996D01*
X166173022Y-51245647D01*
X166357425Y-51521625D01*
X166592125Y-51756325D01*
X166868103Y-51940728D01*
X167174754Y-52067746D01*
X167500292Y-52132500D01*
X167623884Y-52132500D01*
X164512584Y-55243801D01*
X108634876Y-55243801D01*
X108597551Y-55240125D01*
X108560226Y-55243801D01*
X108560218Y-55243801D01*
X108448565Y-55254798D01*
X108305304Y-55298255D01*
X108173275Y-55368827D01*
X108057550Y-55463800D01*
X108033747Y-55492804D01*
X107986650Y-55539901D01*
X95297088Y-55539901D01*
X95391972Y-55310830D01*
X95450050Y-55018850D01*
X95450050Y-54721150D01*
X95391972Y-54429170D01*
X95297088Y-54200099D01*
X98744764Y-54200099D01*
X98782223Y-54211462D01*
X98893876Y-54222459D01*
X98893887Y-54222459D01*
X98931209Y-54226135D01*
X98968532Y-54222459D01*
X106841721Y-54222459D01*
X106879043Y-54226135D01*
X106916365Y-54222459D01*
X106916376Y-54222459D01*
X107028029Y-54211462D01*
X107171290Y-54168005D01*
X107303319Y-54097433D01*
X107419044Y-54002460D01*
X107442847Y-53973456D01*
X109905053Y-51511250D01*
X154855678Y-51511250D01*
X154855678Y-53511250D01*
X154867938Y-53635732D01*
X154904248Y-53755430D01*
X154963213Y-53865744D01*
X155042565Y-53962435D01*
X155139256Y-54041787D01*
X155249570Y-54100752D01*
X155369268Y-54137062D01*
X155493750Y-54149322D01*
X158693750Y-54149322D01*
X158818232Y-54137062D01*
X158937930Y-54100752D01*
X159048244Y-54041787D01*
X159144935Y-53962435D01*
X159224287Y-53865744D01*
X159283252Y-53755430D01*
X159319562Y-53635732D01*
X159331822Y-53511250D01*
X159331822Y-51511250D01*
X159319562Y-51386768D01*
X159283252Y-51267070D01*
X159224287Y-51156756D01*
X159144935Y-51060065D01*
X159048244Y-50980713D01*
X158937930Y-50921748D01*
X158818232Y-50885438D01*
X158693750Y-50873178D01*
X155493750Y-50873178D01*
X155369268Y-50885438D01*
X155249570Y-50921748D01*
X155139256Y-50980713D01*
X155042565Y-51060065D01*
X154963213Y-51156756D01*
X154904248Y-51267070D01*
X154867938Y-51386768D01*
X154855678Y-51511250D01*
X109905053Y-51511250D01*
X113836880Y-47579423D01*
X113920011Y-47997351D01*
X114118643Y-48476891D01*
X114407012Y-48908465D01*
X114774035Y-49275488D01*
X115205609Y-49563857D01*
X115685149Y-49762489D01*
X116194225Y-49863750D01*
X116713275Y-49863750D01*
X117222351Y-49762489D01*
X117701891Y-49563857D01*
X118133465Y-49275488D01*
X118500488Y-48908465D01*
X118788857Y-48476891D01*
X118987489Y-47997351D01*
X119088750Y-47488275D01*
X119088750Y-47082490D01*
X120048750Y-47082490D01*
X120048750Y-47375010D01*
X120105818Y-47661908D01*
X120217760Y-47932161D01*
X120380275Y-48175382D01*
X120587118Y-48382225D01*
X120830339Y-48544740D01*
X121100592Y-48656682D01*
X121387490Y-48713750D01*
X121680010Y-48713750D01*
X121966908Y-48656682D01*
X122237161Y-48544740D01*
X122480382Y-48382225D01*
X122687225Y-48175382D01*
X122849740Y-47932161D01*
X122961682Y-47661908D01*
X123018750Y-47375010D01*
X123018750Y-47082490D01*
X122961682Y-46795592D01*
X122849740Y-46525339D01*
X122687225Y-46282118D01*
X122480382Y-46075275D01*
X122237161Y-45912760D01*
X121966908Y-45800818D01*
X121680010Y-45743750D01*
X121387490Y-45743750D01*
X121100592Y-45800818D01*
X120830339Y-45912760D01*
X120587118Y-46075275D01*
X120380275Y-46282118D01*
X120217760Y-46525339D01*
X120105818Y-46795592D01*
X120048750Y-47082490D01*
X119088750Y-47082490D01*
X119088750Y-46969225D01*
X118987489Y-46460149D01*
X118788857Y-45980609D01*
X118500488Y-45549035D01*
X118400203Y-45448750D01*
X130130602Y-45448750D01*
X130156213Y-45510581D01*
X130312011Y-45743750D01*
X130277490Y-45743750D01*
X129990592Y-45800818D01*
X129720339Y-45912760D01*
X129477118Y-46075275D01*
X129270275Y-46282118D01*
X129107760Y-46525339D01*
X128995818Y-46795592D01*
X128938750Y-47082490D01*
X128938750Y-47375010D01*
X128995818Y-47661908D01*
X129107760Y-47932161D01*
X129270275Y-48175382D01*
X129477118Y-48382225D01*
X129720339Y-48544740D01*
X129990592Y-48656682D01*
X130277490Y-48713750D01*
X130570010Y-48713750D01*
X130856908Y-48656682D01*
X131127161Y-48544740D01*
X131370382Y-48382225D01*
X131577225Y-48175382D01*
X131739740Y-47932161D01*
X131851682Y-47661908D01*
X131908750Y-47375010D01*
X131908750Y-47082490D01*
X131886221Y-46969225D01*
X132868750Y-46969225D01*
X132868750Y-47488275D01*
X132970011Y-47997351D01*
X133168643Y-48476891D01*
X133457012Y-48908465D01*
X133824035Y-49275488D01*
X134255609Y-49563857D01*
X134735149Y-49762489D01*
X135244225Y-49863750D01*
X135763275Y-49863750D01*
X136272351Y-49762489D01*
X136751891Y-49563857D01*
X137183465Y-49275488D01*
X137550488Y-48908465D01*
X137838857Y-48476891D01*
X138037489Y-47997351D01*
X138138750Y-47488275D01*
X138138750Y-47082490D01*
X139098750Y-47082490D01*
X139098750Y-47375010D01*
X139155818Y-47661908D01*
X139267760Y-47932161D01*
X139430275Y-48175382D01*
X139637118Y-48382225D01*
X139880339Y-48544740D01*
X140150592Y-48656682D01*
X140437490Y-48713750D01*
X140730010Y-48713750D01*
X141016908Y-48656682D01*
X141287161Y-48544740D01*
X141530382Y-48382225D01*
X141737225Y-48175382D01*
X141899740Y-47932161D01*
X142011682Y-47661908D01*
X142068750Y-47375010D01*
X142068750Y-47082490D01*
X142011682Y-46795592D01*
X141899740Y-46525339D01*
X141737225Y-46282118D01*
X141530382Y-46075275D01*
X141287161Y-45912760D01*
X141016908Y-45800818D01*
X140730010Y-45743750D01*
X140437490Y-45743750D01*
X140150592Y-45800818D01*
X139880339Y-45912760D01*
X139637118Y-46075275D01*
X139430275Y-46282118D01*
X139267760Y-46525339D01*
X139155818Y-46795592D01*
X139098750Y-47082490D01*
X138138750Y-47082490D01*
X138138750Y-46969225D01*
X138037489Y-46460149D01*
X137838857Y-45980609D01*
X137550488Y-45549035D01*
X137183465Y-45182012D01*
X136751891Y-44893643D01*
X136272351Y-44695011D01*
X135763275Y-44593750D01*
X135244225Y-44593750D01*
X134735149Y-44695011D01*
X134255609Y-44893643D01*
X133824035Y-45182012D01*
X133457012Y-45549035D01*
X133168643Y-45980609D01*
X132970011Y-46460149D01*
X132868750Y-46969225D01*
X131886221Y-46969225D01*
X131851682Y-46795592D01*
X131739740Y-46525339D01*
X131671860Y-46423750D01*
X131864633Y-46423750D01*
X132199831Y-46357075D01*
X132515581Y-46226287D01*
X132799748Y-46036413D01*
X133041413Y-45794748D01*
X133231287Y-45510581D01*
X133362075Y-45194831D01*
X133428750Y-44859633D01*
X133428750Y-44517867D01*
X133362075Y-44182669D01*
X133231287Y-43866919D01*
X133041413Y-43582752D01*
X132814123Y-43355462D01*
X137016643Y-43355462D01*
X137124476Y-43630088D01*
X137431134Y-43780966D01*
X137761335Y-43869119D01*
X138102389Y-43891159D01*
X138441189Y-43846239D01*
X138764716Y-43736086D01*
X138963024Y-43630088D01*
X139070857Y-43355462D01*
X138043750Y-42328355D01*
X137016643Y-43355462D01*
X132814123Y-43355462D01*
X132799748Y-43341087D01*
X132515581Y-43151213D01*
X132199831Y-43020425D01*
X131864633Y-42953750D01*
X131522867Y-42953750D01*
X131187669Y-43020425D01*
X130871919Y-43151213D01*
X130587752Y-43341087D01*
X130346087Y-43582752D01*
X130156213Y-43866919D01*
X130130602Y-43928750D01*
X115690074Y-43928750D01*
X115652751Y-43925074D01*
X115615428Y-43928750D01*
X115615419Y-43928750D01*
X115503766Y-43939747D01*
X115360505Y-43983204D01*
X115228476Y-44053776D01*
X115112751Y-44148749D01*
X115088953Y-44177747D01*
X114371719Y-44894981D01*
X114378750Y-44859633D01*
X114378750Y-44517867D01*
X114312075Y-44182669D01*
X114181287Y-43866919D01*
X113991413Y-43582752D01*
X113764123Y-43355462D01*
X117966643Y-43355462D01*
X118074476Y-43630088D01*
X118381134Y-43780966D01*
X118711335Y-43869119D01*
X119052389Y-43891159D01*
X119391189Y-43846239D01*
X119714716Y-43736086D01*
X119913024Y-43630088D01*
X120020857Y-43355462D01*
X118993750Y-42328355D01*
X117966643Y-43355462D01*
X113764123Y-43355462D01*
X113749748Y-43341087D01*
X113465581Y-43151213D01*
X113149831Y-43020425D01*
X112814633Y-42953750D01*
X112472867Y-42953750D01*
X112137669Y-43020425D01*
X111821919Y-43151213D01*
X111537752Y-43341087D01*
X111296087Y-43582752D01*
X111106213Y-43866919D01*
X111080602Y-43928750D01*
X106800085Y-43928750D01*
X106762752Y-43925073D01*
X106725419Y-43928750D01*
X106613766Y-43939747D01*
X106470505Y-43983204D01*
X106338476Y-44053776D01*
X106222751Y-44148749D01*
X106198953Y-44177747D01*
X103814859Y-46561841D01*
X103799740Y-46525339D01*
X103637225Y-46282118D01*
X103430382Y-46075275D01*
X103187161Y-45912760D01*
X102916908Y-45800818D01*
X102630010Y-45743750D01*
X102337490Y-45743750D01*
X102050592Y-45800818D01*
X101780339Y-45912760D01*
X101537118Y-46075275D01*
X101330275Y-46282118D01*
X101167760Y-46525339D01*
X101055818Y-46795592D01*
X100998750Y-47082490D01*
X100998750Y-47375010D01*
X101055818Y-47661908D01*
X101167760Y-47932161D01*
X101330275Y-48175382D01*
X101537118Y-48382225D01*
X101780339Y-48544740D01*
X101816841Y-48559860D01*
X98285950Y-52090751D01*
X90915321Y-52090751D01*
X90877998Y-52087075D01*
X90840675Y-52090751D01*
X90840666Y-52090751D01*
X90729013Y-52101748D01*
X90585752Y-52145205D01*
X90453723Y-52215777D01*
X90337998Y-52310750D01*
X90314200Y-52339748D01*
X89247525Y-53406424D01*
X89007600Y-53358700D01*
X88709900Y-53358700D01*
X88417920Y-53416778D01*
X88142881Y-53530703D01*
X87895352Y-53696096D01*
X87684846Y-53906602D01*
X87588750Y-54050420D01*
X87492654Y-53906602D01*
X87282148Y-53696096D01*
X87078750Y-53560190D01*
X87078750Y-50722917D01*
X90868440Y-46933227D01*
X90838750Y-47082490D01*
X90838750Y-47375010D01*
X90895818Y-47661908D01*
X91007760Y-47932161D01*
X91170275Y-48175382D01*
X91377118Y-48382225D01*
X91620339Y-48544740D01*
X91890592Y-48656682D01*
X92177490Y-48713750D01*
X92470010Y-48713750D01*
X92756908Y-48656682D01*
X93027161Y-48544740D01*
X93270382Y-48382225D01*
X93477225Y-48175382D01*
X93639740Y-47932161D01*
X93751682Y-47661908D01*
X93808750Y-47375010D01*
X93808750Y-47082490D01*
X93786221Y-46969225D01*
X94768750Y-46969225D01*
X94768750Y-47488275D01*
X94870011Y-47997351D01*
X95068643Y-48476891D01*
X95357012Y-48908465D01*
X95724035Y-49275488D01*
X96155609Y-49563857D01*
X96635149Y-49762489D01*
X97144225Y-49863750D01*
X97663275Y-49863750D01*
X98172351Y-49762489D01*
X98651891Y-49563857D01*
X99083465Y-49275488D01*
X99450488Y-48908465D01*
X99738857Y-48476891D01*
X99937489Y-47997351D01*
X100038750Y-47488275D01*
X100038750Y-46969225D01*
X99937489Y-46460149D01*
X99738857Y-45980609D01*
X99450488Y-45549035D01*
X99083465Y-45182012D01*
X98651891Y-44893643D01*
X98172351Y-44695011D01*
X97663275Y-44593750D01*
X97144225Y-44593750D01*
X96635149Y-44695011D01*
X96155609Y-44893643D01*
X95724035Y-45182012D01*
X95357012Y-45549035D01*
X95068643Y-45980609D01*
X94870011Y-46460149D01*
X94768750Y-46969225D01*
X93786221Y-46969225D01*
X93751682Y-46795592D01*
X93639740Y-46525339D01*
X93571860Y-46423750D01*
X93764633Y-46423750D01*
X94099831Y-46357075D01*
X94415581Y-46226287D01*
X94699748Y-46036413D01*
X94941413Y-45794748D01*
X95131287Y-45510581D01*
X95262075Y-45194831D01*
X95328750Y-44859633D01*
X95328750Y-44517867D01*
X95262075Y-44182669D01*
X95131287Y-43866919D01*
X94941413Y-43582752D01*
X94714123Y-43355462D01*
X98916643Y-43355462D01*
X99024476Y-43630088D01*
X99331134Y-43780966D01*
X99661335Y-43869119D01*
X100002389Y-43891159D01*
X100341189Y-43846239D01*
X100664716Y-43736086D01*
X100863024Y-43630088D01*
X100970857Y-43355462D01*
X99943750Y-42328355D01*
X98916643Y-43355462D01*
X94714123Y-43355462D01*
X94699748Y-43341087D01*
X94415581Y-43151213D01*
X94099831Y-43020425D01*
X93764633Y-42953750D01*
X93422867Y-42953750D01*
X93087669Y-43020425D01*
X92771919Y-43151213D01*
X92487752Y-43341087D01*
X92246087Y-43582752D01*
X92056213Y-43866919D01*
X92031870Y-43925689D01*
X92000793Y-43928750D01*
X92000783Y-43928750D01*
X91889130Y-43939747D01*
X91745869Y-43983204D01*
X91613839Y-44053776D01*
X91575820Y-44084978D01*
X91498115Y-44148749D01*
X91474317Y-44177747D01*
X85807753Y-49844312D01*
X85778749Y-49868115D01*
X85731299Y-49925934D01*
X85683776Y-49983840D01*
X85653778Y-50039962D01*
X85630176Y-50084119D01*
X85615025Y-50055774D01*
X85543850Y-49969048D01*
X85520052Y-49940050D01*
X85491054Y-49916252D01*
X84124702Y-48549901D01*
X84137161Y-48544740D01*
X84380382Y-48382225D01*
X84587225Y-48175382D01*
X84749740Y-47932161D01*
X84861682Y-47661908D01*
X84918750Y-47375010D01*
X84918750Y-47082490D01*
X84861682Y-46795592D01*
X84749740Y-46525339D01*
X84587225Y-46282118D01*
X84380382Y-46075275D01*
X84137161Y-45912760D01*
X83866908Y-45800818D01*
X83580010Y-45743750D01*
X83287490Y-45743750D01*
X83000592Y-45800818D01*
X82730339Y-45912760D01*
X82487118Y-46075275D01*
X82280275Y-46282118D01*
X82117760Y-46525339D01*
X82112599Y-46537798D01*
X78930263Y-43355462D01*
X79866643Y-43355462D01*
X79974476Y-43630088D01*
X80281134Y-43780966D01*
X80611335Y-43869119D01*
X80952389Y-43891159D01*
X81291189Y-43846239D01*
X81614716Y-43736086D01*
X81813024Y-43630088D01*
X81920857Y-43355462D01*
X80893750Y-42328355D01*
X79866643Y-43355462D01*
X78930263Y-43355462D01*
X77782190Y-42207389D01*
X79151341Y-42207389D01*
X79196261Y-42546189D01*
X79306414Y-42869716D01*
X79412412Y-43068024D01*
X79687038Y-43175857D01*
X80714145Y-42148750D01*
X79687038Y-41121643D01*
X79412412Y-41229476D01*
X79261534Y-41536134D01*
X79173381Y-41866335D01*
X79151341Y-42207389D01*
X77782190Y-42207389D01*
X76640905Y-41066104D01*
X76874619Y-40969297D01*
X77122148Y-40803904D01*
X77332654Y-40593398D01*
X77428750Y-40449580D01*
X77524846Y-40593398D01*
X77735352Y-40803904D01*
X77982881Y-40969297D01*
X78257920Y-41083222D01*
X78549900Y-41141300D01*
X78847600Y-41141300D01*
X79139580Y-41083222D01*
X79414619Y-40969297D01*
X79662148Y-40803904D01*
X79872654Y-40593398D01*
X79968750Y-40449580D01*
X80064846Y-40593398D01*
X80081601Y-40610153D01*
X79974476Y-40667412D01*
X79866643Y-40942038D01*
X80893750Y-41969145D01*
X80907893Y-41955003D01*
X81087498Y-42134608D01*
X81073355Y-42148750D01*
X82100462Y-43175857D01*
X82375088Y-43068024D01*
X82525966Y-42761366D01*
X82614119Y-42431165D01*
X82635730Y-42096748D01*
X82694385Y-42144885D01*
X82826414Y-42215457D01*
X82969675Y-42258914D01*
X83081328Y-42269911D01*
X83081336Y-42269911D01*
X83118661Y-42273587D01*
X83155986Y-42269911D01*
X98133203Y-42269911D01*
X98170525Y-42273587D01*
X98207847Y-42269911D01*
X98207858Y-42269911D01*
X98209608Y-42269739D01*
X98246261Y-42546189D01*
X98356414Y-42869716D01*
X98462412Y-43068024D01*
X98737038Y-43175857D01*
X99764145Y-42148750D01*
X100123355Y-42148750D01*
X101150462Y-43175857D01*
X101425088Y-43068024D01*
X101575966Y-42761366D01*
X101664119Y-42431165D01*
X101678580Y-42207389D01*
X117251341Y-42207389D01*
X117296261Y-42546189D01*
X117406414Y-42869716D01*
X117512412Y-43068024D01*
X117787038Y-43175857D01*
X118814145Y-42148750D01*
X119173355Y-42148750D01*
X120200462Y-43175857D01*
X120475088Y-43068024D01*
X120625966Y-42761366D01*
X120714119Y-42431165D01*
X120728580Y-42207389D01*
X136301341Y-42207389D01*
X136346261Y-42546189D01*
X136456414Y-42869716D01*
X136562412Y-43068024D01*
X136837038Y-43175857D01*
X137864145Y-42148750D01*
X138223355Y-42148750D01*
X139250462Y-43175857D01*
X139525088Y-43068024D01*
X139675966Y-42761366D01*
X139764119Y-42431165D01*
X139786159Y-42090111D01*
X139741239Y-41751311D01*
X139631086Y-41427784D01*
X139525088Y-41229476D01*
X139250462Y-41121643D01*
X138223355Y-42148750D01*
X137864145Y-42148750D01*
X136837038Y-41121643D01*
X136562412Y-41229476D01*
X136411534Y-41536134D01*
X136323381Y-41866335D01*
X136301341Y-42207389D01*
X120728580Y-42207389D01*
X120736159Y-42090111D01*
X120691239Y-41751311D01*
X120581086Y-41427784D01*
X120475088Y-41229476D01*
X120200462Y-41121643D01*
X119173355Y-42148750D01*
X118814145Y-42148750D01*
X117787038Y-41121643D01*
X117512412Y-41229476D01*
X117361534Y-41536134D01*
X117273381Y-41866335D01*
X117251341Y-42207389D01*
X101678580Y-42207389D01*
X101686159Y-42090111D01*
X101641239Y-41751311D01*
X101531086Y-41427784D01*
X101425088Y-41229476D01*
X101150462Y-41121643D01*
X100123355Y-42148750D01*
X99764145Y-42148750D01*
X99750003Y-42134608D01*
X99929608Y-41955003D01*
X99943750Y-41969145D01*
X100970857Y-40942038D01*
X117966643Y-40942038D01*
X118993750Y-41969145D01*
X120020857Y-40942038D01*
X137016643Y-40942038D01*
X138043750Y-41969145D01*
X139070857Y-40942038D01*
X138963024Y-40667412D01*
X138656366Y-40516534D01*
X138326165Y-40428381D01*
X137985111Y-40406341D01*
X137646311Y-40451261D01*
X137322784Y-40561414D01*
X137124476Y-40667412D01*
X137016643Y-40942038D01*
X120020857Y-40942038D01*
X119913024Y-40667412D01*
X119606366Y-40516534D01*
X119276165Y-40428381D01*
X118935111Y-40406341D01*
X118596311Y-40451261D01*
X118272784Y-40561414D01*
X118074476Y-40667412D01*
X117966643Y-40942038D01*
X100970857Y-40942038D01*
X100863024Y-40667412D01*
X100556366Y-40516534D01*
X100305640Y-40449598D01*
X100938969Y-39816270D01*
X139423969Y-39816270D01*
X148527573Y-48919875D01*
X148521582Y-48934338D01*
X148458750Y-49250217D01*
X148458750Y-49572283D01*
X148521582Y-49888162D01*
X148644832Y-50185713D01*
X148823763Y-50453502D01*
X149051498Y-50681237D01*
X149319287Y-50860168D01*
X149616838Y-50983418D01*
X149932717Y-51046250D01*
X150254783Y-51046250D01*
X150570662Y-50983418D01*
X150868213Y-50860168D01*
X151136002Y-50681237D01*
X151363737Y-50453502D01*
X151542668Y-50185713D01*
X151665918Y-49888162D01*
X151728750Y-49572283D01*
X151728750Y-49250217D01*
X151665918Y-48934338D01*
X151542668Y-48636787D01*
X151363737Y-48368998D01*
X151136002Y-48141263D01*
X150868213Y-47962332D01*
X150570662Y-47839082D01*
X150254783Y-47776250D01*
X149932717Y-47776250D01*
X149616838Y-47839082D01*
X149602375Y-47845073D01*
X147303965Y-45546663D01*
X149137942Y-45546663D01*
X149233706Y-45811064D01*
X149523321Y-45951954D01*
X149834858Y-46033634D01*
X150156345Y-46052968D01*
X150475425Y-46009211D01*
X150779838Y-45904045D01*
X150953794Y-45811064D01*
X151049558Y-45546663D01*
X150093750Y-44590855D01*
X149137942Y-45546663D01*
X147303965Y-45546663D01*
X146231147Y-44473845D01*
X148452032Y-44473845D01*
X148495789Y-44792925D01*
X148600955Y-45097338D01*
X148693936Y-45271294D01*
X148958337Y-45367058D01*
X149914145Y-44411250D01*
X150273355Y-44411250D01*
X151229163Y-45367058D01*
X151493564Y-45271294D01*
X151634454Y-44981679D01*
X151716134Y-44670142D01*
X151735468Y-44348655D01*
X151691711Y-44029575D01*
X151586545Y-43725162D01*
X151493564Y-43551206D01*
X151229163Y-43455442D01*
X150273355Y-44411250D01*
X149914145Y-44411250D01*
X148958337Y-43455442D01*
X148693936Y-43551206D01*
X148553046Y-43840821D01*
X148471366Y-44152358D01*
X148452032Y-44473845D01*
X146231147Y-44473845D01*
X145033139Y-43275837D01*
X149137942Y-43275837D01*
X150093750Y-44231645D01*
X151049558Y-43275837D01*
X150953794Y-43011436D01*
X150664179Y-42870546D01*
X150352642Y-42788866D01*
X150031155Y-42769532D01*
X149712075Y-42813289D01*
X149407662Y-42918455D01*
X149233706Y-43011436D01*
X149137942Y-43275837D01*
X145033139Y-43275837D01*
X142068552Y-40311250D01*
X154855678Y-40311250D01*
X154855678Y-42311250D01*
X154867938Y-42435732D01*
X154904248Y-42555430D01*
X154963213Y-42665744D01*
X155042565Y-42762435D01*
X155139256Y-42841787D01*
X155249570Y-42900752D01*
X155369268Y-42937062D01*
X155493750Y-42949322D01*
X158693750Y-42949322D01*
X158818232Y-42937062D01*
X158937930Y-42900752D01*
X159048244Y-42841787D01*
X159144935Y-42762435D01*
X159224287Y-42665744D01*
X159283252Y-42555430D01*
X159319562Y-42435732D01*
X159331822Y-42311250D01*
X159331822Y-40311250D01*
X159319562Y-40186768D01*
X159283252Y-40067070D01*
X159224287Y-39956756D01*
X159144935Y-39860065D01*
X159048244Y-39780713D01*
X158937930Y-39721748D01*
X158818232Y-39685438D01*
X158693750Y-39673178D01*
X155493750Y-39673178D01*
X155369268Y-39685438D01*
X155249570Y-39721748D01*
X155139256Y-39780713D01*
X155042565Y-39860065D01*
X154963213Y-39956756D01*
X154904248Y-40067070D01*
X154867938Y-40186768D01*
X154855678Y-40311250D01*
X142068552Y-40311250D01*
X141123561Y-39366260D01*
X160936299Y-39366260D01*
X161708751Y-40138713D01*
%TA.AperFunction,Conductor*%
D21*
G36*
X161708751Y-40138713D02*
G01*
X161708750Y-47248928D01*
X161705074Y-47286250D01*
X161708750Y-47323572D01*
X161708750Y-47323582D01*
X161719747Y-47435235D01*
X161763039Y-47577953D01*
X161763204Y-47578496D01*
X161833776Y-47710526D01*
X161873621Y-47759076D01*
X161928749Y-47826251D01*
X161957753Y-47850054D01*
X162955678Y-48847979D01*
X162955678Y-50411250D01*
X162967938Y-50535732D01*
X163004248Y-50655430D01*
X163063213Y-50765744D01*
X163142565Y-50862435D01*
X163239256Y-50941787D01*
X163349570Y-51000752D01*
X163469268Y-51037062D01*
X163593750Y-51049322D01*
X165593750Y-51049322D01*
X165718232Y-51037062D01*
X165837930Y-51000752D01*
X165948244Y-50941787D01*
X166032762Y-50872425D01*
X166046004Y-50938996D01*
X166173022Y-51245647D01*
X166357425Y-51521625D01*
X166592125Y-51756325D01*
X166868103Y-51940728D01*
X167174754Y-52067746D01*
X167500292Y-52132500D01*
X167623884Y-52132500D01*
X164512584Y-55243801D01*
X108634876Y-55243801D01*
X108597551Y-55240125D01*
X108560226Y-55243801D01*
X108560218Y-55243801D01*
X108448565Y-55254798D01*
X108305304Y-55298255D01*
X108173275Y-55368827D01*
X108057550Y-55463800D01*
X108033747Y-55492804D01*
X107986650Y-55539901D01*
X95297088Y-55539901D01*
X95391972Y-55310830D01*
X95450050Y-55018850D01*
X95450050Y-54721150D01*
X95391972Y-54429170D01*
X95297088Y-54200099D01*
X98744764Y-54200099D01*
X98782223Y-54211462D01*
X98893876Y-54222459D01*
X98893887Y-54222459D01*
X98931209Y-54226135D01*
X98968532Y-54222459D01*
X106841721Y-54222459D01*
X106879043Y-54226135D01*
X106916365Y-54222459D01*
X106916376Y-54222459D01*
X107028029Y-54211462D01*
X107171290Y-54168005D01*
X107303319Y-54097433D01*
X107419044Y-54002460D01*
X107442847Y-53973456D01*
X109905053Y-51511250D01*
X154855678Y-51511250D01*
X154855678Y-53511250D01*
X154867938Y-53635732D01*
X154904248Y-53755430D01*
X154963213Y-53865744D01*
X155042565Y-53962435D01*
X155139256Y-54041787D01*
X155249570Y-54100752D01*
X155369268Y-54137062D01*
X155493750Y-54149322D01*
X158693750Y-54149322D01*
X158818232Y-54137062D01*
X158937930Y-54100752D01*
X159048244Y-54041787D01*
X159144935Y-53962435D01*
X159224287Y-53865744D01*
X159283252Y-53755430D01*
X159319562Y-53635732D01*
X159331822Y-53511250D01*
X159331822Y-51511250D01*
X159319562Y-51386768D01*
X159283252Y-51267070D01*
X159224287Y-51156756D01*
X159144935Y-51060065D01*
X159048244Y-50980713D01*
X158937930Y-50921748D01*
X158818232Y-50885438D01*
X158693750Y-50873178D01*
X155493750Y-50873178D01*
X155369268Y-50885438D01*
X155249570Y-50921748D01*
X155139256Y-50980713D01*
X155042565Y-51060065D01*
X154963213Y-51156756D01*
X154904248Y-51267070D01*
X154867938Y-51386768D01*
X154855678Y-51511250D01*
X109905053Y-51511250D01*
X113836880Y-47579423D01*
X113920011Y-47997351D01*
X114118643Y-48476891D01*
X114407012Y-48908465D01*
X114774035Y-49275488D01*
X115205609Y-49563857D01*
X115685149Y-49762489D01*
X116194225Y-49863750D01*
X116713275Y-49863750D01*
X117222351Y-49762489D01*
X117701891Y-49563857D01*
X118133465Y-49275488D01*
X118500488Y-48908465D01*
X118788857Y-48476891D01*
X118987489Y-47997351D01*
X119088750Y-47488275D01*
X119088750Y-47082490D01*
X120048750Y-47082490D01*
X120048750Y-47375010D01*
X120105818Y-47661908D01*
X120217760Y-47932161D01*
X120380275Y-48175382D01*
X120587118Y-48382225D01*
X120830339Y-48544740D01*
X121100592Y-48656682D01*
X121387490Y-48713750D01*
X121680010Y-48713750D01*
X121966908Y-48656682D01*
X122237161Y-48544740D01*
X122480382Y-48382225D01*
X122687225Y-48175382D01*
X122849740Y-47932161D01*
X122961682Y-47661908D01*
X123018750Y-47375010D01*
X123018750Y-47082490D01*
X122961682Y-46795592D01*
X122849740Y-46525339D01*
X122687225Y-46282118D01*
X122480382Y-46075275D01*
X122237161Y-45912760D01*
X121966908Y-45800818D01*
X121680010Y-45743750D01*
X121387490Y-45743750D01*
X121100592Y-45800818D01*
X120830339Y-45912760D01*
X120587118Y-46075275D01*
X120380275Y-46282118D01*
X120217760Y-46525339D01*
X120105818Y-46795592D01*
X120048750Y-47082490D01*
X119088750Y-47082490D01*
X119088750Y-46969225D01*
X118987489Y-46460149D01*
X118788857Y-45980609D01*
X118500488Y-45549035D01*
X118400203Y-45448750D01*
X130130602Y-45448750D01*
X130156213Y-45510581D01*
X130312011Y-45743750D01*
X130277490Y-45743750D01*
X129990592Y-45800818D01*
X129720339Y-45912760D01*
X129477118Y-46075275D01*
X129270275Y-46282118D01*
X129107760Y-46525339D01*
X128995818Y-46795592D01*
X128938750Y-47082490D01*
X128938750Y-47375010D01*
X128995818Y-47661908D01*
X129107760Y-47932161D01*
X129270275Y-48175382D01*
X129477118Y-48382225D01*
X129720339Y-48544740D01*
X129990592Y-48656682D01*
X130277490Y-48713750D01*
X130570010Y-48713750D01*
X130856908Y-48656682D01*
X131127161Y-48544740D01*
X131370382Y-48382225D01*
X131577225Y-48175382D01*
X131739740Y-47932161D01*
X131851682Y-47661908D01*
X131908750Y-47375010D01*
X131908750Y-47082490D01*
X131886221Y-46969225D01*
X132868750Y-46969225D01*
X132868750Y-47488275D01*
X132970011Y-47997351D01*
X133168643Y-48476891D01*
X133457012Y-48908465D01*
X133824035Y-49275488D01*
X134255609Y-49563857D01*
X134735149Y-49762489D01*
X135244225Y-49863750D01*
X135763275Y-49863750D01*
X136272351Y-49762489D01*
X136751891Y-49563857D01*
X137183465Y-49275488D01*
X137550488Y-48908465D01*
X137838857Y-48476891D01*
X138037489Y-47997351D01*
X138138750Y-47488275D01*
X138138750Y-47082490D01*
X139098750Y-47082490D01*
X139098750Y-47375010D01*
X139155818Y-47661908D01*
X139267760Y-47932161D01*
X139430275Y-48175382D01*
X139637118Y-48382225D01*
X139880339Y-48544740D01*
X140150592Y-48656682D01*
X140437490Y-48713750D01*
X140730010Y-48713750D01*
X141016908Y-48656682D01*
X141287161Y-48544740D01*
X141530382Y-48382225D01*
X141737225Y-48175382D01*
X141899740Y-47932161D01*
X142011682Y-47661908D01*
X142068750Y-47375010D01*
X142068750Y-47082490D01*
X142011682Y-46795592D01*
X141899740Y-46525339D01*
X141737225Y-46282118D01*
X141530382Y-46075275D01*
X141287161Y-45912760D01*
X141016908Y-45800818D01*
X140730010Y-45743750D01*
X140437490Y-45743750D01*
X140150592Y-45800818D01*
X139880339Y-45912760D01*
X139637118Y-46075275D01*
X139430275Y-46282118D01*
X139267760Y-46525339D01*
X139155818Y-46795592D01*
X139098750Y-47082490D01*
X138138750Y-47082490D01*
X138138750Y-46969225D01*
X138037489Y-46460149D01*
X137838857Y-45980609D01*
X137550488Y-45549035D01*
X137183465Y-45182012D01*
X136751891Y-44893643D01*
X136272351Y-44695011D01*
X135763275Y-44593750D01*
X135244225Y-44593750D01*
X134735149Y-44695011D01*
X134255609Y-44893643D01*
X133824035Y-45182012D01*
X133457012Y-45549035D01*
X133168643Y-45980609D01*
X132970011Y-46460149D01*
X132868750Y-46969225D01*
X131886221Y-46969225D01*
X131851682Y-46795592D01*
X131739740Y-46525339D01*
X131671860Y-46423750D01*
X131864633Y-46423750D01*
X132199831Y-46357075D01*
X132515581Y-46226287D01*
X132799748Y-46036413D01*
X133041413Y-45794748D01*
X133231287Y-45510581D01*
X133362075Y-45194831D01*
X133428750Y-44859633D01*
X133428750Y-44517867D01*
X133362075Y-44182669D01*
X133231287Y-43866919D01*
X133041413Y-43582752D01*
X132814123Y-43355462D01*
X137016643Y-43355462D01*
X137124476Y-43630088D01*
X137431134Y-43780966D01*
X137761335Y-43869119D01*
X138102389Y-43891159D01*
X138441189Y-43846239D01*
X138764716Y-43736086D01*
X138963024Y-43630088D01*
X139070857Y-43355462D01*
X138043750Y-42328355D01*
X137016643Y-43355462D01*
X132814123Y-43355462D01*
X132799748Y-43341087D01*
X132515581Y-43151213D01*
X132199831Y-43020425D01*
X131864633Y-42953750D01*
X131522867Y-42953750D01*
X131187669Y-43020425D01*
X130871919Y-43151213D01*
X130587752Y-43341087D01*
X130346087Y-43582752D01*
X130156213Y-43866919D01*
X130130602Y-43928750D01*
X115690074Y-43928750D01*
X115652751Y-43925074D01*
X115615428Y-43928750D01*
X115615419Y-43928750D01*
X115503766Y-43939747D01*
X115360505Y-43983204D01*
X115228476Y-44053776D01*
X115112751Y-44148749D01*
X115088953Y-44177747D01*
X114371719Y-44894981D01*
X114378750Y-44859633D01*
X114378750Y-44517867D01*
X114312075Y-44182669D01*
X114181287Y-43866919D01*
X113991413Y-43582752D01*
X113764123Y-43355462D01*
X117966643Y-43355462D01*
X118074476Y-43630088D01*
X118381134Y-43780966D01*
X118711335Y-43869119D01*
X119052389Y-43891159D01*
X119391189Y-43846239D01*
X119714716Y-43736086D01*
X119913024Y-43630088D01*
X120020857Y-43355462D01*
X118993750Y-42328355D01*
X117966643Y-43355462D01*
X113764123Y-43355462D01*
X113749748Y-43341087D01*
X113465581Y-43151213D01*
X113149831Y-43020425D01*
X112814633Y-42953750D01*
X112472867Y-42953750D01*
X112137669Y-43020425D01*
X111821919Y-43151213D01*
X111537752Y-43341087D01*
X111296087Y-43582752D01*
X111106213Y-43866919D01*
X111080602Y-43928750D01*
X106800085Y-43928750D01*
X106762752Y-43925073D01*
X106725419Y-43928750D01*
X106613766Y-43939747D01*
X106470505Y-43983204D01*
X106338476Y-44053776D01*
X106222751Y-44148749D01*
X106198953Y-44177747D01*
X103814859Y-46561841D01*
X103799740Y-46525339D01*
X103637225Y-46282118D01*
X103430382Y-46075275D01*
X103187161Y-45912760D01*
X102916908Y-45800818D01*
X102630010Y-45743750D01*
X102337490Y-45743750D01*
X102050592Y-45800818D01*
X101780339Y-45912760D01*
X101537118Y-46075275D01*
X101330275Y-46282118D01*
X101167760Y-46525339D01*
X101055818Y-46795592D01*
X100998750Y-47082490D01*
X100998750Y-47375010D01*
X101055818Y-47661908D01*
X101167760Y-47932161D01*
X101330275Y-48175382D01*
X101537118Y-48382225D01*
X101780339Y-48544740D01*
X101816841Y-48559860D01*
X98285950Y-52090751D01*
X90915321Y-52090751D01*
X90877998Y-52087075D01*
X90840675Y-52090751D01*
X90840666Y-52090751D01*
X90729013Y-52101748D01*
X90585752Y-52145205D01*
X90453723Y-52215777D01*
X90337998Y-52310750D01*
X90314200Y-52339748D01*
X89247525Y-53406424D01*
X89007600Y-53358700D01*
X88709900Y-53358700D01*
X88417920Y-53416778D01*
X88142881Y-53530703D01*
X87895352Y-53696096D01*
X87684846Y-53906602D01*
X87588750Y-54050420D01*
X87492654Y-53906602D01*
X87282148Y-53696096D01*
X87078750Y-53560190D01*
X87078750Y-50722917D01*
X90868440Y-46933227D01*
X90838750Y-47082490D01*
X90838750Y-47375010D01*
X90895818Y-47661908D01*
X91007760Y-47932161D01*
X91170275Y-48175382D01*
X91377118Y-48382225D01*
X91620339Y-48544740D01*
X91890592Y-48656682D01*
X92177490Y-48713750D01*
X92470010Y-48713750D01*
X92756908Y-48656682D01*
X93027161Y-48544740D01*
X93270382Y-48382225D01*
X93477225Y-48175382D01*
X93639740Y-47932161D01*
X93751682Y-47661908D01*
X93808750Y-47375010D01*
X93808750Y-47082490D01*
X93786221Y-46969225D01*
X94768750Y-46969225D01*
X94768750Y-47488275D01*
X94870011Y-47997351D01*
X95068643Y-48476891D01*
X95357012Y-48908465D01*
X95724035Y-49275488D01*
X96155609Y-49563857D01*
X96635149Y-49762489D01*
X97144225Y-49863750D01*
X97663275Y-49863750D01*
X98172351Y-49762489D01*
X98651891Y-49563857D01*
X99083465Y-49275488D01*
X99450488Y-48908465D01*
X99738857Y-48476891D01*
X99937489Y-47997351D01*
X100038750Y-47488275D01*
X100038750Y-46969225D01*
X99937489Y-46460149D01*
X99738857Y-45980609D01*
X99450488Y-45549035D01*
X99083465Y-45182012D01*
X98651891Y-44893643D01*
X98172351Y-44695011D01*
X97663275Y-44593750D01*
X97144225Y-44593750D01*
X96635149Y-44695011D01*
X96155609Y-44893643D01*
X95724035Y-45182012D01*
X95357012Y-45549035D01*
X95068643Y-45980609D01*
X94870011Y-46460149D01*
X94768750Y-46969225D01*
X93786221Y-46969225D01*
X93751682Y-46795592D01*
X93639740Y-46525339D01*
X93571860Y-46423750D01*
X93764633Y-46423750D01*
X94099831Y-46357075D01*
X94415581Y-46226287D01*
X94699748Y-46036413D01*
X94941413Y-45794748D01*
X95131287Y-45510581D01*
X95262075Y-45194831D01*
X95328750Y-44859633D01*
X95328750Y-44517867D01*
X95262075Y-44182669D01*
X95131287Y-43866919D01*
X94941413Y-43582752D01*
X94714123Y-43355462D01*
X98916643Y-43355462D01*
X99024476Y-43630088D01*
X99331134Y-43780966D01*
X99661335Y-43869119D01*
X100002389Y-43891159D01*
X100341189Y-43846239D01*
X100664716Y-43736086D01*
X100863024Y-43630088D01*
X100970857Y-43355462D01*
X99943750Y-42328355D01*
X98916643Y-43355462D01*
X94714123Y-43355462D01*
X94699748Y-43341087D01*
X94415581Y-43151213D01*
X94099831Y-43020425D01*
X93764633Y-42953750D01*
X93422867Y-42953750D01*
X93087669Y-43020425D01*
X92771919Y-43151213D01*
X92487752Y-43341087D01*
X92246087Y-43582752D01*
X92056213Y-43866919D01*
X92031870Y-43925689D01*
X92000793Y-43928750D01*
X92000783Y-43928750D01*
X91889130Y-43939747D01*
X91745869Y-43983204D01*
X91613839Y-44053776D01*
X91575820Y-44084978D01*
X91498115Y-44148749D01*
X91474317Y-44177747D01*
X85807753Y-49844312D01*
X85778749Y-49868115D01*
X85731299Y-49925934D01*
X85683776Y-49983840D01*
X85653778Y-50039962D01*
X85630176Y-50084119D01*
X85615025Y-50055774D01*
X85543850Y-49969048D01*
X85520052Y-49940050D01*
X85491054Y-49916252D01*
X84124702Y-48549901D01*
X84137161Y-48544740D01*
X84380382Y-48382225D01*
X84587225Y-48175382D01*
X84749740Y-47932161D01*
X84861682Y-47661908D01*
X84918750Y-47375010D01*
X84918750Y-47082490D01*
X84861682Y-46795592D01*
X84749740Y-46525339D01*
X84587225Y-46282118D01*
X84380382Y-46075275D01*
X84137161Y-45912760D01*
X83866908Y-45800818D01*
X83580010Y-45743750D01*
X83287490Y-45743750D01*
X83000592Y-45800818D01*
X82730339Y-45912760D01*
X82487118Y-46075275D01*
X82280275Y-46282118D01*
X82117760Y-46525339D01*
X82112599Y-46537798D01*
X78930263Y-43355462D01*
X79866643Y-43355462D01*
X79974476Y-43630088D01*
X80281134Y-43780966D01*
X80611335Y-43869119D01*
X80952389Y-43891159D01*
X81291189Y-43846239D01*
X81614716Y-43736086D01*
X81813024Y-43630088D01*
X81920857Y-43355462D01*
X80893750Y-42328355D01*
X79866643Y-43355462D01*
X78930263Y-43355462D01*
X77782190Y-42207389D01*
X79151341Y-42207389D01*
X79196261Y-42546189D01*
X79306414Y-42869716D01*
X79412412Y-43068024D01*
X79687038Y-43175857D01*
X80714145Y-42148750D01*
X79687038Y-41121643D01*
X79412412Y-41229476D01*
X79261534Y-41536134D01*
X79173381Y-41866335D01*
X79151341Y-42207389D01*
X77782190Y-42207389D01*
X76640905Y-41066104D01*
X76874619Y-40969297D01*
X77122148Y-40803904D01*
X77332654Y-40593398D01*
X77428750Y-40449580D01*
X77524846Y-40593398D01*
X77735352Y-40803904D01*
X77982881Y-40969297D01*
X78257920Y-41083222D01*
X78549900Y-41141300D01*
X78847600Y-41141300D01*
X79139580Y-41083222D01*
X79414619Y-40969297D01*
X79662148Y-40803904D01*
X79872654Y-40593398D01*
X79968750Y-40449580D01*
X80064846Y-40593398D01*
X80081601Y-40610153D01*
X79974476Y-40667412D01*
X79866643Y-40942038D01*
X80893750Y-41969145D01*
X80907893Y-41955003D01*
X81087498Y-42134608D01*
X81073355Y-42148750D01*
X82100462Y-43175857D01*
X82375088Y-43068024D01*
X82525966Y-42761366D01*
X82614119Y-42431165D01*
X82635730Y-42096748D01*
X82694385Y-42144885D01*
X82826414Y-42215457D01*
X82969675Y-42258914D01*
X83081328Y-42269911D01*
X83081336Y-42269911D01*
X83118661Y-42273587D01*
X83155986Y-42269911D01*
X98133203Y-42269911D01*
X98170525Y-42273587D01*
X98207847Y-42269911D01*
X98207858Y-42269911D01*
X98209608Y-42269739D01*
X98246261Y-42546189D01*
X98356414Y-42869716D01*
X98462412Y-43068024D01*
X98737038Y-43175857D01*
X99764145Y-42148750D01*
X100123355Y-42148750D01*
X101150462Y-43175857D01*
X101425088Y-43068024D01*
X101575966Y-42761366D01*
X101664119Y-42431165D01*
X101678580Y-42207389D01*
X117251341Y-42207389D01*
X117296261Y-42546189D01*
X117406414Y-42869716D01*
X117512412Y-43068024D01*
X117787038Y-43175857D01*
X118814145Y-42148750D01*
X119173355Y-42148750D01*
X120200462Y-43175857D01*
X120475088Y-43068024D01*
X120625966Y-42761366D01*
X120714119Y-42431165D01*
X120728580Y-42207389D01*
X136301341Y-42207389D01*
X136346261Y-42546189D01*
X136456414Y-42869716D01*
X136562412Y-43068024D01*
X136837038Y-43175857D01*
X137864145Y-42148750D01*
X138223355Y-42148750D01*
X139250462Y-43175857D01*
X139525088Y-43068024D01*
X139675966Y-42761366D01*
X139764119Y-42431165D01*
X139786159Y-42090111D01*
X139741239Y-41751311D01*
X139631086Y-41427784D01*
X139525088Y-41229476D01*
X139250462Y-41121643D01*
X138223355Y-42148750D01*
X137864145Y-42148750D01*
X136837038Y-41121643D01*
X136562412Y-41229476D01*
X136411534Y-41536134D01*
X136323381Y-41866335D01*
X136301341Y-42207389D01*
X120728580Y-42207389D01*
X120736159Y-42090111D01*
X120691239Y-41751311D01*
X120581086Y-41427784D01*
X120475088Y-41229476D01*
X120200462Y-41121643D01*
X119173355Y-42148750D01*
X118814145Y-42148750D01*
X117787038Y-41121643D01*
X117512412Y-41229476D01*
X117361534Y-41536134D01*
X117273381Y-41866335D01*
X117251341Y-42207389D01*
X101678580Y-42207389D01*
X101686159Y-42090111D01*
X101641239Y-41751311D01*
X101531086Y-41427784D01*
X101425088Y-41229476D01*
X101150462Y-41121643D01*
X100123355Y-42148750D01*
X99764145Y-42148750D01*
X99750003Y-42134608D01*
X99929608Y-41955003D01*
X99943750Y-41969145D01*
X100970857Y-40942038D01*
X117966643Y-40942038D01*
X118993750Y-41969145D01*
X120020857Y-40942038D01*
X137016643Y-40942038D01*
X138043750Y-41969145D01*
X139070857Y-40942038D01*
X138963024Y-40667412D01*
X138656366Y-40516534D01*
X138326165Y-40428381D01*
X137985111Y-40406341D01*
X137646311Y-40451261D01*
X137322784Y-40561414D01*
X137124476Y-40667412D01*
X137016643Y-40942038D01*
X120020857Y-40942038D01*
X119913024Y-40667412D01*
X119606366Y-40516534D01*
X119276165Y-40428381D01*
X118935111Y-40406341D01*
X118596311Y-40451261D01*
X118272784Y-40561414D01*
X118074476Y-40667412D01*
X117966643Y-40942038D01*
X100970857Y-40942038D01*
X100863024Y-40667412D01*
X100556366Y-40516534D01*
X100305640Y-40449598D01*
X100938969Y-39816270D01*
X139423969Y-39816270D01*
X148527573Y-48919875D01*
X148521582Y-48934338D01*
X148458750Y-49250217D01*
X148458750Y-49572283D01*
X148521582Y-49888162D01*
X148644832Y-50185713D01*
X148823763Y-50453502D01*
X149051498Y-50681237D01*
X149319287Y-50860168D01*
X149616838Y-50983418D01*
X149932717Y-51046250D01*
X150254783Y-51046250D01*
X150570662Y-50983418D01*
X150868213Y-50860168D01*
X151136002Y-50681237D01*
X151363737Y-50453502D01*
X151542668Y-50185713D01*
X151665918Y-49888162D01*
X151728750Y-49572283D01*
X151728750Y-49250217D01*
X151665918Y-48934338D01*
X151542668Y-48636787D01*
X151363737Y-48368998D01*
X151136002Y-48141263D01*
X150868213Y-47962332D01*
X150570662Y-47839082D01*
X150254783Y-47776250D01*
X149932717Y-47776250D01*
X149616838Y-47839082D01*
X149602375Y-47845073D01*
X147303965Y-45546663D01*
X149137942Y-45546663D01*
X149233706Y-45811064D01*
X149523321Y-45951954D01*
X149834858Y-46033634D01*
X150156345Y-46052968D01*
X150475425Y-46009211D01*
X150779838Y-45904045D01*
X150953794Y-45811064D01*
X151049558Y-45546663D01*
X150093750Y-44590855D01*
X149137942Y-45546663D01*
X147303965Y-45546663D01*
X146231147Y-44473845D01*
X148452032Y-44473845D01*
X148495789Y-44792925D01*
X148600955Y-45097338D01*
X148693936Y-45271294D01*
X148958337Y-45367058D01*
X149914145Y-44411250D01*
X150273355Y-44411250D01*
X151229163Y-45367058D01*
X151493564Y-45271294D01*
X151634454Y-44981679D01*
X151716134Y-44670142D01*
X151735468Y-44348655D01*
X151691711Y-44029575D01*
X151586545Y-43725162D01*
X151493564Y-43551206D01*
X151229163Y-43455442D01*
X150273355Y-44411250D01*
X149914145Y-44411250D01*
X148958337Y-43455442D01*
X148693936Y-43551206D01*
X148553046Y-43840821D01*
X148471366Y-44152358D01*
X148452032Y-44473845D01*
X146231147Y-44473845D01*
X145033139Y-43275837D01*
X149137942Y-43275837D01*
X150093750Y-44231645D01*
X151049558Y-43275837D01*
X150953794Y-43011436D01*
X150664179Y-42870546D01*
X150352642Y-42788866D01*
X150031155Y-42769532D01*
X149712075Y-42813289D01*
X149407662Y-42918455D01*
X149233706Y-43011436D01*
X149137942Y-43275837D01*
X145033139Y-43275837D01*
X142068552Y-40311250D01*
X154855678Y-40311250D01*
X154855678Y-42311250D01*
X154867938Y-42435732D01*
X154904248Y-42555430D01*
X154963213Y-42665744D01*
X155042565Y-42762435D01*
X155139256Y-42841787D01*
X155249570Y-42900752D01*
X155369268Y-42937062D01*
X155493750Y-42949322D01*
X158693750Y-42949322D01*
X158818232Y-42937062D01*
X158937930Y-42900752D01*
X159048244Y-42841787D01*
X159144935Y-42762435D01*
X159224287Y-42665744D01*
X159283252Y-42555430D01*
X159319562Y-42435732D01*
X159331822Y-42311250D01*
X159331822Y-40311250D01*
X159319562Y-40186768D01*
X159283252Y-40067070D01*
X159224287Y-39956756D01*
X159144935Y-39860065D01*
X159048244Y-39780713D01*
X158937930Y-39721748D01*
X158818232Y-39685438D01*
X158693750Y-39673178D01*
X155493750Y-39673178D01*
X155369268Y-39685438D01*
X155249570Y-39721748D01*
X155139256Y-39780713D01*
X155042565Y-39860065D01*
X154963213Y-39956756D01*
X154904248Y-40067070D01*
X154867938Y-40186768D01*
X154855678Y-40311250D01*
X142068552Y-40311250D01*
X141123561Y-39366260D01*
X160936299Y-39366260D01*
X161708751Y-40138713D01*
G37*
%TD.AperFunction*%
%TD*%
M02*
