M48
; DRILL file {KiCad (5.1.7)-1} date 11/07/20 14:05:24
; FORMAT={-:-/ absolute / inch / decimal}
; #@! TF.CreationDate,2020-11-07T14:05:24+07:00
; #@! TF.GenerationSoftware,Kicad,Pcbnew,(5.1.7)-1
; #@! TF.FileFunction,Plated,1,2,PTH
FMAT,2
INCH
T1C0.0320
T2C0.0390
T3C0.0394
T4C0.0430
T5C0.0512
T6C0.0591
%
G90
G05
T1
X2.6427Y-1.7139
X2.6427Y-1.8139
X2.6427Y-1.9139
X2.6427Y-2.0139
T2
X6.6991Y-1.7495
X6.6991Y-1.9464
T3
X5.9092Y-1.7485
X5.9092Y-1.9453
X6.4801Y-1.7485
X6.4801Y-1.8469
X6.4801Y-1.9453
T4
X2.5984Y-1.5602
X2.5984Y-2.1602
X2.6984Y-1.5602
X2.6984Y-2.1602
X2.7984Y-1.5602
X2.7984Y-2.1602
X2.8984Y-1.5602
X2.8984Y-2.1602
X2.9984Y-1.5602
X2.9984Y-2.1602
X3.0984Y-1.5602
X3.0984Y-2.1602
X3.1984Y-1.5602
X3.1984Y-2.1602
X3.2984Y-1.5602
X3.2984Y-2.1602
X3.3984Y-1.5602
X3.3984Y-2.1602
X3.4984Y-1.5602
X3.4984Y-2.1602
X3.5984Y-1.5602
X3.5984Y-2.1602
X3.6984Y-1.5602
X3.6984Y-2.1602
T5
X6.601Y-1.7101
X6.601Y-1.9861
T6
X5.1848Y-1.7594
X5.4348Y-1.6594
X4.4348Y-1.7594
X4.6848Y-1.6594
X2.9348Y-1.7594
X3.1848Y-1.6594
X3.6848Y-1.7594
X3.9348Y-1.6594
T0
M30
