%TF.GenerationSoftware,KiCad,Pcbnew,(5.1.7)-1*%
%TF.CreationDate,2020-11-07T14:05:26+07:00*%
%TF.ProjectId,pix,7069782e-6b69-4636-9164-5f7063625858,rev?*%
%TF.SameCoordinates,Original*%
%TF.FileFunction,Legend,Top*%
%TF.FilePolarity,Positive*%
%FSLAX46Y46*%
G04 Gerber Fmt 4.6, Leading zero omitted, Abs format (unit mm)*
G04 Created by KiCad (PCBNEW (5.1.7)-1) date 2020-11-07 14:05:26*
%MOMM*%
%LPD*%
G01*
G04 APERTURE LIST*
%ADD10C,0.381000*%
%ADD11C,0.150000*%
%ADD12C,0.120000*%
G04 APERTURE END LIST*
D10*
%TO.C,U1*%
X64728750Y-56140000D02*
X95208750Y-56140000D01*
X95208750Y-56140000D02*
X95208750Y-38360000D01*
X95208750Y-38360000D02*
X64728750Y-38360000D01*
X64728750Y-53600000D02*
X67268750Y-53600000D01*
X67268750Y-53600000D02*
X67268750Y-56140000D01*
D11*
G36*
X70608110Y-42318432D02*
G01*
X70908110Y-42318432D01*
X70908110Y-42418432D01*
X70608110Y-42418432D01*
X70608110Y-42318432D01*
G37*
X70608110Y-42318432D02*
X70908110Y-42318432D01*
X70908110Y-42418432D01*
X70608110Y-42418432D01*
X70608110Y-42318432D01*
G36*
X71008110Y-42518432D02*
G01*
X71108110Y-42518432D01*
X71108110Y-42618432D01*
X71008110Y-42618432D01*
X71008110Y-42518432D01*
G37*
X71008110Y-42518432D02*
X71108110Y-42518432D01*
X71108110Y-42618432D01*
X71008110Y-42618432D01*
X71008110Y-42518432D01*
G36*
X70608110Y-42318432D02*
G01*
X70708110Y-42318432D01*
X70708110Y-42818432D01*
X70608110Y-42818432D01*
X70608110Y-42318432D01*
G37*
X70608110Y-42318432D02*
X70708110Y-42318432D01*
X70708110Y-42818432D01*
X70608110Y-42818432D01*
X70608110Y-42318432D01*
G36*
X70608110Y-42718432D02*
G01*
X71408110Y-42718432D01*
X71408110Y-42818432D01*
X70608110Y-42818432D01*
X70608110Y-42718432D01*
G37*
X70608110Y-42718432D02*
X71408110Y-42718432D01*
X71408110Y-42818432D01*
X70608110Y-42818432D01*
X70608110Y-42718432D01*
G36*
X71208110Y-42318432D02*
G01*
X71408110Y-42318432D01*
X71408110Y-42418432D01*
X71208110Y-42418432D01*
X71208110Y-42318432D01*
G37*
X71208110Y-42318432D02*
X71408110Y-42318432D01*
X71408110Y-42418432D01*
X71208110Y-42418432D01*
X71208110Y-42318432D01*
D10*
X64728750Y-38360000D02*
X62188750Y-38360000D01*
X62188750Y-38360000D02*
X62188750Y-56140000D01*
X62188750Y-56140000D02*
X64728750Y-56140000D01*
X64728750Y-53600000D02*
X64728750Y-56140000D01*
D12*
%TO.C,SW2*%
X160093750Y-46911250D02*
G75*
G03*
X160093750Y-46911250I-3000000J0D01*
G01*
X155093750Y-52811250D02*
X150993750Y-52811250D01*
X150993750Y-41011250D02*
X155093750Y-41011250D01*
X159093750Y-41011250D02*
X163193750Y-41011250D01*
X159093750Y-52811250D02*
X163193750Y-52811250D01*
X163193750Y-52811250D02*
X163193750Y-41011250D01*
X164593750Y-50711250D02*
X164893750Y-51011250D01*
X164893750Y-51011250D02*
X164293750Y-51011250D01*
X164293750Y-51011250D02*
X164593750Y-50711250D01*
X150993750Y-52811250D02*
X150993750Y-50411250D01*
X150993750Y-48211250D02*
X150993750Y-45611250D01*
X150993750Y-43411250D02*
X150993750Y-41011250D01*
X157093750Y-47411250D02*
X157093750Y-46411250D01*
X157593750Y-46911250D02*
X156593750Y-46911250D01*
%TO.C,SW1*%
X169186250Y-43597500D02*
X168956250Y-43597500D01*
X172856250Y-43077500D02*
X172856250Y-50797500D01*
X172856250Y-50797500D02*
X168956250Y-50797500D01*
X172856250Y-43077500D02*
X168956250Y-43077500D01*
X169186250Y-50277500D02*
X168956250Y-50277500D01*
X169186250Y-49737500D02*
X169186250Y-50277500D01*
X169186250Y-43597500D02*
X169186250Y-44137500D01*
X169186250Y-45237500D02*
X169186250Y-48637500D01*
%TO.C,MX4*%
X128518750Y-40243750D02*
X142488750Y-40243750D01*
X142488750Y-40243750D02*
X142488750Y-54213750D01*
X142488750Y-54213750D02*
X128518750Y-54213750D01*
X128518750Y-54213750D02*
X128518750Y-40243750D01*
%TO.C,MX3*%
X109468750Y-40243750D02*
X123438750Y-40243750D01*
X123438750Y-40243750D02*
X123438750Y-54213750D01*
X123438750Y-54213750D02*
X109468750Y-54213750D01*
X109468750Y-54213750D02*
X109468750Y-40243750D01*
%TO.C,MX2*%
X90418750Y-40243750D02*
X104388750Y-40243750D01*
X104388750Y-40243750D02*
X104388750Y-54213750D01*
X104388750Y-54213750D02*
X90418750Y-54213750D01*
X90418750Y-54213750D02*
X90418750Y-40243750D01*
%TO.C,MX1*%
X71368750Y-40243750D02*
X85338750Y-40243750D01*
X85338750Y-40243750D02*
X85338750Y-54213750D01*
X85338750Y-54213750D02*
X71368750Y-54213750D01*
X71368750Y-54213750D02*
X71368750Y-40243750D01*
%TO.C,U1*%
D11*
X65560654Y-53012348D02*
X65560654Y-52555205D01*
X66360654Y-52783776D02*
X65560654Y-52783776D01*
X65560654Y-52364729D02*
X66360654Y-51831395D01*
X65560654Y-51831395D02*
X66360654Y-52364729D01*
X65560654Y-51374252D02*
X65560654Y-51298062D01*
X65598750Y-51221872D01*
X65636845Y-51183776D01*
X65713035Y-51145681D01*
X65865416Y-51107586D01*
X66055892Y-51107586D01*
X66208273Y-51145681D01*
X66284464Y-51183776D01*
X66322559Y-51221872D01*
X66360654Y-51298062D01*
X66360654Y-51374252D01*
X66322559Y-51450443D01*
X66284464Y-51488538D01*
X66208273Y-51526633D01*
X66055892Y-51564729D01*
X65865416Y-51564729D01*
X65713035Y-51526633D01*
X65636845Y-51488538D01*
X65598750Y-51450443D01*
X65560654Y-51374252D01*
X65522559Y-50193300D02*
X66551130Y-50879014D01*
X66360654Y-49926633D02*
X65560654Y-49926633D01*
X65560654Y-49736157D01*
X65598750Y-49621872D01*
X65674940Y-49545681D01*
X65751130Y-49507586D01*
X65903511Y-49469491D01*
X66017797Y-49469491D01*
X66170178Y-49507586D01*
X66246369Y-49545681D01*
X66322559Y-49621872D01*
X66360654Y-49736157D01*
X66360654Y-49926633D01*
X65560654Y-49202824D02*
X65560654Y-48707586D01*
X65865416Y-48974252D01*
X65865416Y-48859967D01*
X65903511Y-48783776D01*
X65941607Y-48745681D01*
X66017797Y-48707586D01*
X66208273Y-48707586D01*
X66284464Y-48745681D01*
X66322559Y-48783776D01*
X66360654Y-48859967D01*
X66360654Y-49088538D01*
X66322559Y-49164729D01*
X66284464Y-49202824D01*
X68900654Y-53301476D02*
X68100654Y-53301476D01*
X68100654Y-53111000D01*
X68138750Y-52996714D01*
X68214940Y-52920523D01*
X68291130Y-52882428D01*
X68443511Y-52844333D01*
X68557797Y-52844333D01*
X68710178Y-52882428D01*
X68786369Y-52920523D01*
X68862559Y-52996714D01*
X68900654Y-53111000D01*
X68900654Y-53301476D01*
X68176845Y-52539571D02*
X68138750Y-52501476D01*
X68100654Y-52425285D01*
X68100654Y-52234809D01*
X68138750Y-52158619D01*
X68176845Y-52120523D01*
X68253035Y-52082428D01*
X68329226Y-52082428D01*
X68443511Y-52120523D01*
X68900654Y-52577666D01*
X68900654Y-52082428D01*
X79060654Y-53301476D02*
X78260654Y-53301476D01*
X78260654Y-53111000D01*
X78298750Y-52996714D01*
X78374940Y-52920523D01*
X78451130Y-52882428D01*
X78603511Y-52844333D01*
X78717797Y-52844333D01*
X78870178Y-52882428D01*
X78946369Y-52920523D01*
X79022559Y-52996714D01*
X79060654Y-53111000D01*
X79060654Y-53301476D01*
X78260654Y-52349095D02*
X78260654Y-52272904D01*
X78298750Y-52196714D01*
X78336845Y-52158619D01*
X78413035Y-52120523D01*
X78565416Y-52082428D01*
X78755892Y-52082428D01*
X78908273Y-52120523D01*
X78984464Y-52158619D01*
X79022559Y-52196714D01*
X79060654Y-52272904D01*
X79060654Y-52349095D01*
X79022559Y-52425285D01*
X78984464Y-52463380D01*
X78908273Y-52501476D01*
X78755892Y-52539571D01*
X78565416Y-52539571D01*
X78413035Y-52501476D01*
X78336845Y-52463380D01*
X78298750Y-52425285D01*
X78260654Y-52349095D01*
X76520654Y-53301476D02*
X75720654Y-53301476D01*
X75720654Y-53111000D01*
X75758750Y-52996714D01*
X75834940Y-52920523D01*
X75911130Y-52882428D01*
X76063511Y-52844333D01*
X76177797Y-52844333D01*
X76330178Y-52882428D01*
X76406369Y-52920523D01*
X76482559Y-52996714D01*
X76520654Y-53111000D01*
X76520654Y-53301476D01*
X76520654Y-52082428D02*
X76520654Y-52539571D01*
X76520654Y-52311000D02*
X75720654Y-52311000D01*
X75834940Y-52387190D01*
X75911130Y-52463380D01*
X75949226Y-52539571D01*
X73218750Y-53320523D02*
X73180654Y-53396714D01*
X73180654Y-53511000D01*
X73218750Y-53625285D01*
X73294940Y-53701476D01*
X73371130Y-53739571D01*
X73523511Y-53777666D01*
X73637797Y-53777666D01*
X73790178Y-53739571D01*
X73866369Y-53701476D01*
X73942559Y-53625285D01*
X73980654Y-53511000D01*
X73980654Y-53434809D01*
X73942559Y-53320523D01*
X73904464Y-53282428D01*
X73637797Y-53282428D01*
X73637797Y-53434809D01*
X73980654Y-52939571D02*
X73180654Y-52939571D01*
X73980654Y-52482428D01*
X73180654Y-52482428D01*
X73980654Y-52101476D02*
X73180654Y-52101476D01*
X73180654Y-51911000D01*
X73218750Y-51796714D01*
X73294940Y-51720523D01*
X73371130Y-51682428D01*
X73523511Y-51644333D01*
X73637797Y-51644333D01*
X73790178Y-51682428D01*
X73866369Y-51720523D01*
X73942559Y-51796714D01*
X73980654Y-51911000D01*
X73980654Y-52101476D01*
X70678750Y-53320523D02*
X70640654Y-53396714D01*
X70640654Y-53511000D01*
X70678750Y-53625285D01*
X70754940Y-53701476D01*
X70831130Y-53739571D01*
X70983511Y-53777666D01*
X71097797Y-53777666D01*
X71250178Y-53739571D01*
X71326369Y-53701476D01*
X71402559Y-53625285D01*
X71440654Y-53511000D01*
X71440654Y-53434809D01*
X71402559Y-53320523D01*
X71364464Y-53282428D01*
X71097797Y-53282428D01*
X71097797Y-53434809D01*
X71440654Y-52939571D02*
X70640654Y-52939571D01*
X71440654Y-52482428D01*
X70640654Y-52482428D01*
X71440654Y-52101476D02*
X70640654Y-52101476D01*
X70640654Y-51911000D01*
X70678750Y-51796714D01*
X70754940Y-51720523D01*
X70831130Y-51682428D01*
X70983511Y-51644333D01*
X71097797Y-51644333D01*
X71250178Y-51682428D01*
X71326369Y-51720523D01*
X71402559Y-51796714D01*
X71440654Y-51911000D01*
X71440654Y-52101476D01*
X81600654Y-53301476D02*
X80800654Y-53301476D01*
X80800654Y-53111000D01*
X80838750Y-52996714D01*
X80914940Y-52920523D01*
X80991130Y-52882428D01*
X81143511Y-52844333D01*
X81257797Y-52844333D01*
X81410178Y-52882428D01*
X81486369Y-52920523D01*
X81562559Y-52996714D01*
X81600654Y-53111000D01*
X81600654Y-53301476D01*
X81067321Y-52158619D02*
X81600654Y-52158619D01*
X80762559Y-52349095D02*
X81333988Y-52539571D01*
X81333988Y-52044333D01*
X84064464Y-52844333D02*
X84102559Y-52882428D01*
X84140654Y-52996714D01*
X84140654Y-53072904D01*
X84102559Y-53187190D01*
X84026369Y-53263380D01*
X83950178Y-53301476D01*
X83797797Y-53339571D01*
X83683511Y-53339571D01*
X83531130Y-53301476D01*
X83454940Y-53263380D01*
X83378750Y-53187190D01*
X83340654Y-53072904D01*
X83340654Y-52996714D01*
X83378750Y-52882428D01*
X83416845Y-52844333D01*
X83340654Y-52158619D02*
X83340654Y-52311000D01*
X83378750Y-52387190D01*
X83416845Y-52425285D01*
X83531130Y-52501476D01*
X83683511Y-52539571D01*
X83988273Y-52539571D01*
X84064464Y-52501476D01*
X84102559Y-52463380D01*
X84140654Y-52387190D01*
X84140654Y-52234809D01*
X84102559Y-52158619D01*
X84064464Y-52120523D01*
X83988273Y-52082428D01*
X83797797Y-52082428D01*
X83721607Y-52120523D01*
X83683511Y-52158619D01*
X83645416Y-52234809D01*
X83645416Y-52387190D01*
X83683511Y-52463380D01*
X83721607Y-52501476D01*
X83797797Y-52539571D01*
X86680654Y-53301476D02*
X85880654Y-53301476D01*
X85880654Y-53111000D01*
X85918750Y-52996714D01*
X85994940Y-52920523D01*
X86071130Y-52882428D01*
X86223511Y-52844333D01*
X86337797Y-52844333D01*
X86490178Y-52882428D01*
X86566369Y-52920523D01*
X86642559Y-52996714D01*
X86680654Y-53111000D01*
X86680654Y-53301476D01*
X85880654Y-52577666D02*
X85880654Y-52044333D01*
X86680654Y-52387190D01*
X88801607Y-53263380D02*
X88801607Y-52996714D01*
X89220654Y-52882428D02*
X89220654Y-53263380D01*
X88420654Y-53263380D01*
X88420654Y-52882428D01*
X88420654Y-52196714D02*
X88420654Y-52349095D01*
X88458750Y-52425285D01*
X88496845Y-52463380D01*
X88611130Y-52539571D01*
X88763511Y-52577666D01*
X89068273Y-52577666D01*
X89144464Y-52539571D01*
X89182559Y-52501476D01*
X89220654Y-52425285D01*
X89220654Y-52272904D01*
X89182559Y-52196714D01*
X89144464Y-52158619D01*
X89068273Y-52120523D01*
X88877797Y-52120523D01*
X88801607Y-52158619D01*
X88763511Y-52196714D01*
X88725416Y-52272904D01*
X88725416Y-52425285D01*
X88763511Y-52501476D01*
X88801607Y-52539571D01*
X88877797Y-52577666D01*
X91341607Y-53034809D02*
X91379702Y-52920523D01*
X91417797Y-52882428D01*
X91493988Y-52844333D01*
X91608273Y-52844333D01*
X91684464Y-52882428D01*
X91722559Y-52920523D01*
X91760654Y-52996714D01*
X91760654Y-53301476D01*
X90960654Y-53301476D01*
X90960654Y-53034809D01*
X90998750Y-52958619D01*
X91036845Y-52920523D01*
X91113035Y-52882428D01*
X91189226Y-52882428D01*
X91265416Y-52920523D01*
X91303511Y-52958619D01*
X91341607Y-53034809D01*
X91341607Y-53301476D01*
X91227321Y-52158619D02*
X91760654Y-52158619D01*
X90922559Y-52349095D02*
X91493988Y-52539571D01*
X91493988Y-52044333D01*
X93881607Y-53034809D02*
X93919702Y-52920523D01*
X93957797Y-52882428D01*
X94033988Y-52844333D01*
X94148273Y-52844333D01*
X94224464Y-52882428D01*
X94262559Y-52920523D01*
X94300654Y-52996714D01*
X94300654Y-53301476D01*
X93500654Y-53301476D01*
X93500654Y-53034809D01*
X93538750Y-52958619D01*
X93576845Y-52920523D01*
X93653035Y-52882428D01*
X93729226Y-52882428D01*
X93805416Y-52920523D01*
X93843511Y-52958619D01*
X93881607Y-53034809D01*
X93881607Y-53301476D01*
X93500654Y-52120523D02*
X93500654Y-52501476D01*
X93881607Y-52539571D01*
X93843511Y-52501476D01*
X93805416Y-52425285D01*
X93805416Y-52234809D01*
X93843511Y-52158619D01*
X93881607Y-52120523D01*
X93957797Y-52082428D01*
X94148273Y-52082428D01*
X94224464Y-52120523D01*
X94262559Y-52158619D01*
X94300654Y-52234809D01*
X94300654Y-52425285D01*
X94262559Y-52501476D01*
X94224464Y-52539571D01*
X93881607Y-42112809D02*
X93919702Y-41998523D01*
X93957797Y-41960428D01*
X94033988Y-41922333D01*
X94148273Y-41922333D01*
X94224464Y-41960428D01*
X94262559Y-41998523D01*
X94300654Y-42074714D01*
X94300654Y-42379476D01*
X93500654Y-42379476D01*
X93500654Y-42112809D01*
X93538750Y-42036619D01*
X93576845Y-41998523D01*
X93653035Y-41960428D01*
X93729226Y-41960428D01*
X93805416Y-41998523D01*
X93843511Y-42036619D01*
X93881607Y-42112809D01*
X93881607Y-42379476D01*
X93500654Y-41236619D02*
X93500654Y-41389000D01*
X93538750Y-41465190D01*
X93576845Y-41503285D01*
X93691130Y-41579476D01*
X93843511Y-41617571D01*
X94148273Y-41617571D01*
X94224464Y-41579476D01*
X94262559Y-41541380D01*
X94300654Y-41465190D01*
X94300654Y-41312809D01*
X94262559Y-41236619D01*
X94224464Y-41198523D01*
X94148273Y-41160428D01*
X93957797Y-41160428D01*
X93881607Y-41198523D01*
X93843511Y-41236619D01*
X93805416Y-41312809D01*
X93805416Y-41465190D01*
X93843511Y-41541380D01*
X93881607Y-41579476D01*
X93957797Y-41617571D01*
X88801607Y-42112809D02*
X88839702Y-41998523D01*
X88877797Y-41960428D01*
X88953988Y-41922333D01*
X89068273Y-41922333D01*
X89144464Y-41960428D01*
X89182559Y-41998523D01*
X89220654Y-42074714D01*
X89220654Y-42379476D01*
X88420654Y-42379476D01*
X88420654Y-42112809D01*
X88458750Y-42036619D01*
X88496845Y-41998523D01*
X88573035Y-41960428D01*
X88649226Y-41960428D01*
X88725416Y-41998523D01*
X88763511Y-42036619D01*
X88801607Y-42112809D01*
X88801607Y-42379476D01*
X88420654Y-41655666D02*
X88420654Y-41160428D01*
X88725416Y-41427095D01*
X88725416Y-41312809D01*
X88763511Y-41236619D01*
X88801607Y-41198523D01*
X88877797Y-41160428D01*
X89068273Y-41160428D01*
X89144464Y-41198523D01*
X89182559Y-41236619D01*
X89220654Y-41312809D01*
X89220654Y-41541380D01*
X89182559Y-41617571D01*
X89144464Y-41655666D01*
X86261607Y-42112809D02*
X86299702Y-41998523D01*
X86337797Y-41960428D01*
X86413988Y-41922333D01*
X86528273Y-41922333D01*
X86604464Y-41960428D01*
X86642559Y-41998523D01*
X86680654Y-42074714D01*
X86680654Y-42379476D01*
X85880654Y-42379476D01*
X85880654Y-42112809D01*
X85918750Y-42036619D01*
X85956845Y-41998523D01*
X86033035Y-41960428D01*
X86109226Y-41960428D01*
X86185416Y-41998523D01*
X86223511Y-42036619D01*
X86261607Y-42112809D01*
X86261607Y-42379476D01*
X86680654Y-41160428D02*
X86680654Y-41617571D01*
X86680654Y-41389000D02*
X85880654Y-41389000D01*
X85994940Y-41465190D01*
X86071130Y-41541380D01*
X86109226Y-41617571D01*
X76101607Y-42055666D02*
X76101607Y-42322333D01*
X76520654Y-42322333D02*
X75720654Y-42322333D01*
X75720654Y-41941380D01*
X75987321Y-41293761D02*
X76520654Y-41293761D01*
X75682559Y-41484238D02*
X76253988Y-41674714D01*
X76253988Y-41179476D01*
X73180654Y-42855666D02*
X73980654Y-42589000D01*
X73180654Y-42322333D01*
X73904464Y-41598523D02*
X73942559Y-41636619D01*
X73980654Y-41750904D01*
X73980654Y-41827095D01*
X73942559Y-41941380D01*
X73866369Y-42017571D01*
X73790178Y-42055666D01*
X73637797Y-42093761D01*
X73523511Y-42093761D01*
X73371130Y-42055666D01*
X73294940Y-42017571D01*
X73218750Y-41941380D01*
X73180654Y-41827095D01*
X73180654Y-41750904D01*
X73218750Y-41636619D01*
X73256845Y-41598523D01*
X73904464Y-40798523D02*
X73942559Y-40836619D01*
X73980654Y-40950904D01*
X73980654Y-41027095D01*
X73942559Y-41141380D01*
X73866369Y-41217571D01*
X73790178Y-41255666D01*
X73637797Y-41293761D01*
X73523511Y-41293761D01*
X73371130Y-41255666D01*
X73294940Y-41217571D01*
X73218750Y-41141380D01*
X73180654Y-41027095D01*
X73180654Y-40950904D01*
X73218750Y-40836619D01*
X73256845Y-40798523D01*
X71372559Y-42050213D02*
X71410654Y-41935927D01*
X71410654Y-41745451D01*
X71372559Y-41669260D01*
X71334464Y-41631165D01*
X71258273Y-41593070D01*
X71182083Y-41593070D01*
X71105892Y-41631165D01*
X71067797Y-41669260D01*
X71029702Y-41745451D01*
X70991607Y-41897832D01*
X70953511Y-41974022D01*
X70915416Y-42012118D01*
X70839226Y-42050213D01*
X70763035Y-42050213D01*
X70686845Y-42012118D01*
X70648750Y-41974022D01*
X70610654Y-41897832D01*
X70610654Y-41707356D01*
X70648750Y-41593070D01*
X70610654Y-41364499D02*
X70610654Y-40907356D01*
X71410654Y-41135927D02*
X70610654Y-41135927D01*
X68138750Y-42398523D02*
X68100654Y-42474714D01*
X68100654Y-42589000D01*
X68138750Y-42703285D01*
X68214940Y-42779476D01*
X68291130Y-42817571D01*
X68443511Y-42855666D01*
X68557797Y-42855666D01*
X68710178Y-42817571D01*
X68786369Y-42779476D01*
X68862559Y-42703285D01*
X68900654Y-42589000D01*
X68900654Y-42512809D01*
X68862559Y-42398523D01*
X68824464Y-42360428D01*
X68557797Y-42360428D01*
X68557797Y-42512809D01*
X68900654Y-42017571D02*
X68100654Y-42017571D01*
X68900654Y-41560428D01*
X68100654Y-41560428D01*
X68900654Y-41179476D02*
X68100654Y-41179476D01*
X68100654Y-40989000D01*
X68138750Y-40874714D01*
X68214940Y-40798523D01*
X68291130Y-40760428D01*
X68443511Y-40722333D01*
X68557797Y-40722333D01*
X68710178Y-40760428D01*
X68786369Y-40798523D01*
X68862559Y-40874714D01*
X68900654Y-40989000D01*
X68900654Y-41179476D01*
X66360654Y-42341380D02*
X65979702Y-42608047D01*
X66360654Y-42798523D02*
X65560654Y-42798523D01*
X65560654Y-42493761D01*
X65598750Y-42417571D01*
X65636845Y-42379476D01*
X65713035Y-42341380D01*
X65827321Y-42341380D01*
X65903511Y-42379476D01*
X65941607Y-42417571D01*
X65979702Y-42493761D01*
X65979702Y-42798523D01*
X66132083Y-42036619D02*
X66132083Y-41655666D01*
X66360654Y-42112809D02*
X65560654Y-41846142D01*
X66360654Y-41579476D01*
X65560654Y-41389000D02*
X66360654Y-41198523D01*
X65789226Y-41046142D01*
X66360654Y-40893761D01*
X65560654Y-40703285D01*
X78641607Y-42055666D02*
X78641607Y-42322333D01*
X79060654Y-42322333D02*
X78260654Y-42322333D01*
X78260654Y-41941380D01*
X78260654Y-41255666D02*
X78260654Y-41636619D01*
X78641607Y-41674714D01*
X78603511Y-41636619D01*
X78565416Y-41560428D01*
X78565416Y-41369952D01*
X78603511Y-41293761D01*
X78641607Y-41255666D01*
X78717797Y-41217571D01*
X78908273Y-41217571D01*
X78984464Y-41255666D01*
X79022559Y-41293761D01*
X79060654Y-41369952D01*
X79060654Y-41560428D01*
X79022559Y-41636619D01*
X78984464Y-41674714D01*
X81181607Y-42055666D02*
X81181607Y-42322333D01*
X81600654Y-42322333D02*
X80800654Y-42322333D01*
X80800654Y-41941380D01*
X80800654Y-41293761D02*
X80800654Y-41446142D01*
X80838750Y-41522333D01*
X80876845Y-41560428D01*
X80991130Y-41636619D01*
X81143511Y-41674714D01*
X81448273Y-41674714D01*
X81524464Y-41636619D01*
X81562559Y-41598523D01*
X81600654Y-41522333D01*
X81600654Y-41369952D01*
X81562559Y-41293761D01*
X81524464Y-41255666D01*
X81448273Y-41217571D01*
X81257797Y-41217571D01*
X81181607Y-41255666D01*
X81143511Y-41293761D01*
X81105416Y-41369952D01*
X81105416Y-41522333D01*
X81143511Y-41598523D01*
X81181607Y-41636619D01*
X81257797Y-41674714D01*
X83721607Y-42055666D02*
X83721607Y-42322333D01*
X84140654Y-42322333D02*
X83340654Y-42322333D01*
X83340654Y-41941380D01*
X83340654Y-41712809D02*
X83340654Y-41179476D01*
X84140654Y-41522333D01*
X91341607Y-42112809D02*
X91379702Y-41998523D01*
X91417797Y-41960428D01*
X91493988Y-41922333D01*
X91608273Y-41922333D01*
X91684464Y-41960428D01*
X91722559Y-41998523D01*
X91760654Y-42074714D01*
X91760654Y-42379476D01*
X90960654Y-42379476D01*
X90960654Y-42112809D01*
X90998750Y-42036619D01*
X91036845Y-41998523D01*
X91113035Y-41960428D01*
X91189226Y-41960428D01*
X91265416Y-41998523D01*
X91303511Y-42036619D01*
X91341607Y-42112809D01*
X91341607Y-42379476D01*
X91036845Y-41617571D02*
X90998750Y-41579476D01*
X90960654Y-41503285D01*
X90960654Y-41312809D01*
X90998750Y-41236619D01*
X91036845Y-41198523D01*
X91113035Y-41160428D01*
X91189226Y-41160428D01*
X91303511Y-41198523D01*
X91760654Y-41655666D01*
X91760654Y-41160428D01*
%TO.C,OL1*%
X68264880Y-47014880D02*
X68264880Y-46824404D01*
X68312500Y-46729166D01*
X68407738Y-46633928D01*
X68598214Y-46586309D01*
X68931547Y-46586309D01*
X69122023Y-46633928D01*
X69217261Y-46729166D01*
X69264880Y-46824404D01*
X69264880Y-47014880D01*
X69217261Y-47110119D01*
X69122023Y-47205357D01*
X68931547Y-47252976D01*
X68598214Y-47252976D01*
X68407738Y-47205357D01*
X68312500Y-47110119D01*
X68264880Y-47014880D01*
X69264880Y-45681547D02*
X69264880Y-46157738D01*
X68264880Y-46157738D01*
X68741071Y-45348214D02*
X68741071Y-45014880D01*
X69264880Y-44872023D02*
X69264880Y-45348214D01*
X68264880Y-45348214D01*
X68264880Y-44872023D01*
X69264880Y-44443452D02*
X68264880Y-44443452D01*
X68264880Y-44205357D01*
X68312500Y-44062500D01*
X68407738Y-43967261D01*
X68502976Y-43919642D01*
X68693452Y-43872023D01*
X68836309Y-43872023D01*
X69026785Y-43919642D01*
X69122023Y-43967261D01*
X69217261Y-44062500D01*
X69264880Y-44205357D01*
X69264880Y-44443452D01*
%TO.C,SW1*%
X168881011Y-48270833D02*
X168928630Y-48127976D01*
X168928630Y-47889880D01*
X168881011Y-47794642D01*
X168833392Y-47747023D01*
X168738154Y-47699404D01*
X168642916Y-47699404D01*
X168547678Y-47747023D01*
X168500059Y-47794642D01*
X168452440Y-47889880D01*
X168404821Y-48080357D01*
X168357202Y-48175595D01*
X168309583Y-48223214D01*
X168214345Y-48270833D01*
X168119107Y-48270833D01*
X168023869Y-48223214D01*
X167976250Y-48175595D01*
X167928630Y-48080357D01*
X167928630Y-47842261D01*
X167976250Y-47699404D01*
X167928630Y-47366071D02*
X168928630Y-47127976D01*
X168214345Y-46937500D01*
X168928630Y-46747023D01*
X167928630Y-46508928D01*
X168928630Y-45604166D02*
X168928630Y-46175595D01*
X168928630Y-45889880D02*
X167928630Y-45889880D01*
X168071488Y-45985119D01*
X168166726Y-46080357D01*
X168214345Y-46175595D01*
%TO.C,MX4*%
X134218035Y-39807130D02*
X134218035Y-38807130D01*
X134551369Y-39521416D01*
X134884702Y-38807130D01*
X134884702Y-39807130D01*
X135265654Y-38807130D02*
X135932321Y-39807130D01*
X135932321Y-38807130D02*
X135265654Y-39807130D01*
X136741845Y-39140464D02*
X136741845Y-39807130D01*
X136503750Y-38759511D02*
X136265654Y-39473797D01*
X136884702Y-39473797D01*
%TO.C,MX3*%
X115168035Y-39807130D02*
X115168035Y-38807130D01*
X115501369Y-39521416D01*
X115834702Y-38807130D01*
X115834702Y-39807130D01*
X116215654Y-38807130D02*
X116882321Y-39807130D01*
X116882321Y-38807130D02*
X116215654Y-39807130D01*
X117168035Y-38807130D02*
X117787083Y-38807130D01*
X117453750Y-39188083D01*
X117596607Y-39188083D01*
X117691845Y-39235702D01*
X117739464Y-39283321D01*
X117787083Y-39378559D01*
X117787083Y-39616654D01*
X117739464Y-39711892D01*
X117691845Y-39759511D01*
X117596607Y-39807130D01*
X117310892Y-39807130D01*
X117215654Y-39759511D01*
X117168035Y-39711892D01*
%TO.C,MX2*%
X96118035Y-39807130D02*
X96118035Y-38807130D01*
X96451369Y-39521416D01*
X96784702Y-38807130D01*
X96784702Y-39807130D01*
X97165654Y-38807130D02*
X97832321Y-39807130D01*
X97832321Y-38807130D02*
X97165654Y-39807130D01*
X98165654Y-38902369D02*
X98213273Y-38854750D01*
X98308511Y-38807130D01*
X98546607Y-38807130D01*
X98641845Y-38854750D01*
X98689464Y-38902369D01*
X98737083Y-38997607D01*
X98737083Y-39092845D01*
X98689464Y-39235702D01*
X98118035Y-39807130D01*
X98737083Y-39807130D01*
%TO.C,MX1*%
X77068035Y-39807130D02*
X77068035Y-38807130D01*
X77401369Y-39521416D01*
X77734702Y-38807130D01*
X77734702Y-39807130D01*
X78115654Y-38807130D02*
X78782321Y-39807130D01*
X78782321Y-38807130D02*
X78115654Y-39807130D01*
X79687083Y-39807130D02*
X79115654Y-39807130D01*
X79401369Y-39807130D02*
X79401369Y-38807130D01*
X79306130Y-38949988D01*
X79210892Y-39045226D01*
X79115654Y-39092845D01*
%TD*%
M02*
