%TF.GenerationSoftware,KiCad,Pcbnew,(5.1.7)-1*%
%TF.CreationDate,2020-11-07T14:05:26+07:00*%
%TF.ProjectId,pix,7069782e-6b69-4636-9164-5f7063625858,rev?*%
%TF.SameCoordinates,Original*%
%TF.FileFunction,Soldermask,Bot*%
%TF.FilePolarity,Negative*%
%FSLAX46Y46*%
G04 Gerber Fmt 4.6, Leading zero omitted, Abs format (unit mm)*
G04 Created by KiCad (PCBNEW (5.1.7)-1) date 2020-11-07 14:05:26*
%MOMM*%
%LPD*%
G01*
G04 APERTURE LIST*
%ADD10C,1.752600*%
%ADD11R,1.752600X1.752600*%
%ADD12C,1.397000*%
%ADD13R,2.000000X2.000000*%
%ADD14C,2.000000*%
%ADD15R,3.200000X2.000000*%
%ADD16C,1.200000*%
%ADD17C,2.100000*%
%ADD18C,1.750000*%
%ADD19C,1.700000*%
%ADD20C,4.000000*%
%ADD21C,2.200000*%
G04 APERTURE END LIST*
D10*
%TO.C,U1*%
X65998750Y-39630000D03*
X93938750Y-54870000D03*
X68538750Y-39630000D03*
X71078750Y-39630000D03*
X73618750Y-39630000D03*
X76158750Y-39630000D03*
X78698750Y-39630000D03*
X81238750Y-39630000D03*
X83778750Y-39630000D03*
X86318750Y-39630000D03*
X88858750Y-39630000D03*
X91398750Y-39630000D03*
X93938750Y-39630000D03*
X91398750Y-54870000D03*
X88858750Y-54870000D03*
X86318750Y-54870000D03*
X83778750Y-54870000D03*
X81238750Y-54870000D03*
X78698750Y-54870000D03*
X76158750Y-54870000D03*
X73618750Y-54870000D03*
X71078750Y-54870000D03*
X68538750Y-54870000D03*
D11*
X65998750Y-54870000D03*
%TD*%
%TO.C,OL1*%
G36*
G01*
X67474250Y-44232250D02*
X66775750Y-44232250D01*
G75*
G02*
X66426500Y-43883000I0J349250D01*
G01*
X66426500Y-43184500D01*
G75*
G02*
X66775750Y-42835250I349250J0D01*
G01*
X67474250Y-42835250D01*
G75*
G02*
X67823500Y-43184500I0J-349250D01*
G01*
X67823500Y-43883000D01*
G75*
G02*
X67474250Y-44232250I-349250J0D01*
G01*
G37*
D12*
X67125000Y-46073750D03*
X67125000Y-48613750D03*
X67125000Y-51153750D03*
%TD*%
D13*
%TO.C,SW2*%
X164593750Y-49411250D03*
D14*
X164593750Y-46911250D03*
X164593750Y-44411250D03*
D15*
X157093750Y-52511250D03*
X157093750Y-41311250D03*
D14*
X150093750Y-49411250D03*
X150093750Y-44411250D03*
%TD*%
D16*
%TO.C,SW1*%
X171366250Y-46937500D03*
D17*
X167666250Y-43437500D03*
D18*
X170156250Y-44437500D03*
X170156250Y-49437500D03*
D17*
X167666250Y-50447500D03*
%TD*%
D19*
%TO.C,MX4*%
X140583750Y-47228750D03*
X130423750Y-47228750D03*
D20*
X135503750Y-47228750D03*
D21*
X131693750Y-44688750D03*
X138043750Y-42148750D03*
%TD*%
D19*
%TO.C,MX3*%
X121533750Y-47228750D03*
X111373750Y-47228750D03*
D20*
X116453750Y-47228750D03*
D21*
X112643750Y-44688750D03*
X118993750Y-42148750D03*
%TD*%
D19*
%TO.C,MX2*%
X102483750Y-47228750D03*
X92323750Y-47228750D03*
D20*
X97403750Y-47228750D03*
D21*
X93593750Y-44688750D03*
X99943750Y-42148750D03*
%TD*%
D19*
%TO.C,MX1*%
X83433750Y-47228750D03*
X73273750Y-47228750D03*
D20*
X78353750Y-47228750D03*
D21*
X74543750Y-44688750D03*
X80893750Y-42148750D03*
%TD*%
M02*
